<svg version="1.1" viewBox="0.0 0.0 816.0 180.0" fill="none" stroke="none" stroke-linecap="square" stroke-miterlimit="10" width="816" height="180" xmlns:xlink="http://www.w3.org/1999/xlink" xmlns="http://www.w3.org/2000/svg"><path fill="#ffffff" d="M0 0L816.0 0L816.0 180.0L0 180.0L0 0Z" fill-rule="nonzero"/><path stroke="#000000" stroke-width="1.0" stroke-linecap="butt" d="M807.5 107.5L41.5 107.5" fill-rule="nonzero"/><clipPath id="id_0"><path d="M41.0 9.0L807.0 9.0L807.0 107.0L41.0 107.0L41.0 9.0Z" clip-rule="nonzero"/></clipPath><path stroke="#4285f4" stroke-width="2.0" stroke-linecap="butt" clip-path="url(#id_0)" d="M41.0 107.0L41.0 107.0L41.0 9.0L41.0 107.0L108.969536 107.0L108.969536 9.0L108.969536 107.0L183.09084 107.0L183.09084 9.0L183.09084 107.0L263.9207 107.0L263.9207 9.0L263.9207 107.0L352.06625 107.0L352.06625 9.0L352.06625 107.0L448.1897 107.0L448.1897 9.0L448.1897 107.0L553.01306 107.0L553.01306 9.0L553.01306 107.0L667.3237 107.0L667.3237 9.0L667.3237 107.0L791.9804 107.0L791.9804 9.0L791.9804 107.0L791.9804 107.0" fill-rule="nonzero"/><path fill="#000000" fill-opacity="0.0" clip-path="url(#id_0)" d="M44.0 107.0C44.0 108.65685 42.656853 110.0 41.0 110.0C39.343147 110.0 38.0 108.65685 38.0 107.0C38.0 105.34315 39.343147 104.0 41.0 104.0C42.656853 104.0 44.0 105.34315 44.0 107.0Z" fill-rule="nonzero"/><path fill="#000000" fill-opacity="0.0" clip-path="url(#id_0)" d="M44.0 107.0C44.0 108.65685 42.656853 110.0 41.0 110.0C39.343147 110.0 38.0 108.65685 38.0 107.0C38.0 105.34315 39.343147 104.0 41.0 104.0C42.656853 104.0 44.0 105.34315 44.0 107.0Z" fill-rule="nonzero"/><path fill="#000000" fill-opacity="0.0" clip-path="url(#id_0)" d="M44.0 9.0C44.0 10.656855 42.656853 12.0 41.0 12.0C39.343147 12.0 38.0 10.656855 38.0 9.0C38.0 7.343146 39.343147 6.0 41.0 6.0C42.656853 6.0 44.0 7.343146 44.0 9.0Z" fill-rule="nonzero"/><path fill="#000000" fill-opacity="0.0" clip-path="url(#id_0)" d="M44.0 107.0C44.0 108.65685 42.656853 110.0 41.0 110.0C39.343147 110.0 38.0 108.65685 38.0 107.0C38.0 105.34315 39.343147 104.0 41.0 104.0C42.656853 104.0 44.0 105.34315 44.0 107.0Z" fill-rule="nonzero"/><path fill="#000000" fill-opacity="0.0" clip-path="url(#id_0)" d="M111.969536 107.0C111.969536 108.65685 110.62639 110.0 108.969536 110.0C107.312675 110.0 105.969536 108.65685 105.969536 107.0C105.969536 105.34315 107.312675 104.0 108.969536 104.0C110.62639 104.0 111.969536 105.34315 111.969536 107.0Z" fill-rule="nonzero"/><path fill="#000000" fill-opacity="0.0" clip-path="url(#id_0)" d="M111.969536 9.0C111.969536 10.656855 110.62639 12.0 108.969536 12.0C107.312675 12.0 105.969536 10.656855 105.969536 9.0C105.969536 7.343146 107.312675 6.0 108.969536 6.0C110.62639 6.0 111.969536 7.343146 111.969536 9.0Z" fill-rule="nonzero"/><path fill="#000000" fill-opacity="0.0" clip-path="url(#id_0)" d="M111.969536 107.0C111.969536 108.65685 110.62639 110.0 108.969536 110.0C107.312675 110.0 105.969536 108.65685 105.969536 107.0C105.969536 105.34315 107.312675 104.0 108.969536 104.0C110.62639 104.0 111.969536 105.34315 111.969536 107.0Z" fill-rule="nonzero"/><path fill="#000000" fill-opacity="0.0" clip-path="url(#id_0)" d="M186.09084 107.0C186.09084 108.65685 184.74768 110.0 183.09084 110.0C181.43398 110.0 180.09084 108.65685 180.09084 107.0C180.09084 105.34315 181.43398 104.0 183.09084 104.0C184.74768 104.0 186.09084 105.34315 186.09084 107.0Z" fill-rule="nonzero"/><path fill="#000000" fill-opacity="0.0" clip-path="url(#id_0)" d="M186.09084 9.0C186.09084 10.656855 184.74768 12.0 183.09084 12.0C181.43398 12.0 180.09084 10.656855 180.09084 9.0C180.09084 7.343146 181.43398 6.0 183.09084 6.0C184.74768 6.0 186.09084 7.343146 186.09084 9.0Z" fill-rule="nonzero"/><path fill="#000000" fill-opacity="0.0" clip-path="url(#id_0)" d="M186.09084 107.0C186.09084 108.65685 184.74768 110.0 183.09084 110.0C181.43398 110.0 180.09084 108.65685 180.09084 107.0C180.09084 105.34315 181.43398 104.0 183.09084 104.0C184.74768 104.0 186.09084 105.34315 186.09084 107.0Z" fill-rule="nonzero"/><path fill="#000000" fill-opacity="0.0" clip-path="url(#id_0)" d="M266.9207 107.0C266.9207 108.65685 265.57755 110.0 263.9207 110.0C262.26382 110.0 260.9207 108.65685 260.9207 107.0C260.9207 105.34315 262.26382 104.0 263.9207 104.0C265.57755 104.0 266.9207 105.34315 266.9207 107.0Z" fill-rule="nonzero"/><path fill="#000000" fill-opacity="0.0" clip-path="url(#id_0)" d="M266.9207 9.0C266.9207 10.656855 265.57755 12.0 263.9207 12.0C262.26382 12.0 260.9207 10.656855 260.9207 9.0C260.9207 7.343146 262.26382 6.0 263.9207 6.0C265.57755 6.0 266.9207 7.343146 266.9207 9.0Z" fill-rule="nonzero"/><path fill="#000000" fill-opacity="0.0" clip-path="url(#id_0)" d="M266.9207 107.0C266.9207 108.65685 265.57755 110.0 263.9207 110.0C262.26382 110.0 260.9207 108.65685 260.9207 107.0C260.9207 105.34315 262.26382 104.0 263.9207 104.0C265.57755 104.0 266.9207 105.34315 266.9207 107.0Z" fill-rule="nonzero"/><path fill="#000000" fill-opacity="0.0" clip-path="url(#id_0)" d="M355.06625 107.0C355.06625 108.65685 353.7231 110.0 352.06625 110.0C350.40942 110.0 349.06625 108.65685 349.06625 107.0C349.06625 105.34315 350.40942 104.0 352.06625 104.0C353.7231 104.0 355.06625 105.34315 355.06625 107.0Z" fill-rule="nonzero"/><path fill="#000000" fill-opacity="0.0" clip-path="url(#id_0)" d="M355.06625 9.0C355.06625 10.656855 353.7231 12.0 352.06625 12.0C350.40942 12.0 349.06625 10.656855 349.06625 9.0C349.06625 7.343146 350.40942 6.0 352.06625 6.0C353.7231 6.0 355.06625 7.343146 355.06625 9.0Z" fill-rule="nonzero"/><path fill="#000000" fill-opacity="0.0" clip-path="url(#id_0)" d="M355.06625 107.0C355.06625 108.65685 353.7231 110.0 352.06625 110.0C350.40942 110.0 349.06625 108.65685 349.06625 107.0C349.06625 105.34315 350.40942 104.0 352.06625 104.0C353.7231 104.0 355.06625 105.34315 355.06625 107.0Z" fill-rule="nonzero"/><path fill="#000000" fill-opacity="0.0" clip-path="url(#id_0)" d="M451.1897 107.0C451.1897 108.65685 449.84656 110.0 448.1897 110.0C446.53284 110.0 445.1897 108.65685 445.1897 107.0C445.1897 105.34315 446.53284 104.0 448.1897 104.0C449.84656 104.0 451.1897 105.34315 451.1897 107.0Z" fill-rule="nonzero"/><path fill="#000000" fill-opacity="0.0" clip-path="url(#id_0)" d="M451.1897 9.0C451.1897 10.656855 449.84656 12.0 448.1897 12.0C446.53284 12.0 445.1897 10.656855 445.1897 9.0C445.1897 7.343146 446.53284 6.0 448.1897 6.0C449.84656 6.0 451.1897 7.343146 451.1897 9.0Z" fill-rule="nonzero"/><path fill="#000000" fill-opacity="0.0" clip-path="url(#id_0)" d="M451.1897 107.0C451.1897 108.65685 449.84656 110.0 448.1897 110.0C446.53284 110.0 445.1897 108.65685 445.1897 107.0C445.1897 105.34315 446.53284 104.0 448.1897 104.0C449.84656 104.0 451.1897 105.34315 451.1897 107.0Z" fill-rule="nonzero"/><path fill="#000000" fill-opacity="0.0" clip-path="url(#id_0)" d="M556.01306 107.0C556.01306 108.65685 554.6699 110.0 553.01306 110.0C551.3562 110.0 550.01306 108.65685 550.01306 107.0C550.01306 105.34315 551.3562 104.0 553.01306 104.0C554.6699 104.0 556.01306 105.34315 556.01306 107.0Z" fill-rule="nonzero"/><path fill="#000000" fill-opacity="0.0" clip-path="url(#id_0)" d="M556.01306 9.0C556.01306 10.656855 554.6699 12.0 553.01306 12.0C551.3562 12.0 550.01306 10.656855 550.01306 9.0C550.01306 7.343146 551.3562 6.0 553.01306 6.0C554.6699 6.0 556.01306 7.343146 556.01306 9.0Z" fill-rule="nonzero"/><path fill="#000000" fill-opacity="0.0" clip-path="url(#id_0)" d="M556.01306 107.0C556.01306 108.65685 554.6699 110.0 553.01306 110.0C551.3562 110.0 550.01306 108.65685 550.01306 107.0C550.01306 105.34315 551.3562 104.0 553.01306 104.0C554.6699 104.0 556.01306 105.34315 556.01306 107.0Z" fill-rule="nonzero"/><path fill="#000000" fill-opacity="0.0" clip-path="url(#id_0)" d="M670.3237 107.0C670.3237 108.65685 668.9806 110.0 667.3237 110.0C665.6669 110.0 664.3237 108.65685 664.3237 107.0C664.3237 105.34315 665.6669 104.0 667.3237 104.0C668.9806 104.0 670.3237 105.34315 670.3237 107.0Z" fill-rule="nonzero"/><path fill="#000000" fill-opacity="0.0" clip-path="url(#id_0)" d="M670.3237 9.0C670.3237 10.656855 668.9806 12.0 667.3237 12.0C665.6669 12.0 664.3237 10.656855 664.3237 9.0C664.3237 7.343146 665.6669 6.0 667.3237 6.0C668.9806 6.0 670.3237 7.343146 670.3237 9.0Z" fill-rule="nonzero"/><path fill="#000000" fill-opacity="0.0" clip-path="url(#id_0)" d="M670.3237 107.0C670.3237 108.65685 668.9806 110.0 667.3237 110.0C665.6669 110.0 664.3237 108.65685 664.3237 107.0C664.3237 105.34315 665.6669 104.0 667.3237 104.0C668.9806 104.0 670.3237 105.34315 670.3237 107.0Z" fill-rule="nonzero"/><path fill="#000000" fill-opacity="0.0" clip-path="url(#id_0)" d="M794.9804 107.0C794.9804 108.65685 793.63727 110.0 791.9804 110.0C790.32355 110.0 788.9804 108.65685 788.9804 107.0C788.9804 105.34315 790.32355 104.0 791.9804 104.0C793.63727 104.0 794.9804 105.34315 794.9804 107.0Z" fill-rule="nonzero"/><path fill="#000000" fill-opacity="0.0" clip-path="url(#id_0)" d="M794.9804 9.0C794.9804 10.656855 793.63727 12.0 791.9804 12.0C790.32355 12.0 788.9804 10.656855 788.9804 9.0C788.9804 7.343146 790.32355 6.0 791.9804 6.0C793.63727 6.0 794.9804 7.343146 794.9804 9.0Z" fill-rule="nonzero"/><path fill="#000000" fill-opacity="0.0" clip-path="url(#id_0)" d="M794.9804 107.0C794.9804 108.65685 793.63727 110.0 791.9804 110.0C790.32355 110.0 788.9804 108.65685 788.9804 107.0C788.9804 105.34315 790.32355 104.0 791.9804 104.0C793.63727 104.0 794.9804 105.34315 794.9804 107.0Z" fill-rule="nonzero"/><path fill="#000000" fill-opacity="0.0" clip-path="url(#id_0)" d="M794.9804 107.0C794.9804 108.65685 793.63727 110.0 791.9804 110.0C790.32355 110.0 788.9804 108.65685 788.9804 107.0C788.9804 105.34315 790.32355 104.0 791.9804 104.0C793.63727 104.0 794.9804 105.34315 794.9804 107.0Z" fill-rule="nonzero"/><path stroke="#000000" stroke-width="2.0" stroke-linecap="butt" d="M41.5 119.5L41.5 95.5" fill-rule="nonzero"/><path stroke="#000000" stroke-width="2.0" stroke-linecap="butt" d="M87.5 119.5L87.5 95.5" fill-rule="nonzero"/><path stroke="#000000" stroke-width="2.0" stroke-linecap="butt" d="M134.5 119.5L134.5 95.5" fill-rule="nonzero"/><path stroke="#000000" stroke-width="2.0" stroke-linecap="butt" d="M181.5 119.5L181.5 95.5" fill-rule="nonzero"/><path stroke="#000000" stroke-width="2.0" stroke-linecap="butt" d="M228.5 119.5L228.5 95.5" fill-rule="nonzero"/><path stroke="#000000" stroke-width="2.0" stroke-linecap="butt" d="M275.5 119.5L275.5 95.5" fill-rule="nonzero"/><path stroke="#000000" stroke-width="2.0" stroke-linecap="butt" d="M322.5 119.5L322.5 95.5" fill-rule="nonzero"/><path stroke="#000000" stroke-width="2.0" stroke-linecap="butt" d="M369.5 119.5L369.5 95.5" fill-rule="nonzero"/><path stroke="#000000" stroke-width="2.0" stroke-linecap="butt" d="M416.5 119.5L416.5 95.5" fill-rule="nonzero"/><path stroke="#000000" stroke-width="2.0" stroke-linecap="butt" d="M463.5 119.5L463.5 95.5" fill-rule="nonzero"/><path stroke="#000000" stroke-width="2.0" stroke-linecap="butt" d="M510.5 119.5L510.5 95.5" fill-rule="nonzero"/><path stroke="#000000" stroke-width="2.0" stroke-linecap="butt" d="M557.5 119.5L557.5 95.5" fill-rule="nonzero"/><path stroke="#000000" stroke-width="2.0" stroke-linecap="butt" d="M604.5 119.5L604.5 95.5" fill-rule="nonzero"/><path stroke="#000000" stroke-width="2.0" stroke-linecap="butt" d="M651.5 119.5L651.5 95.5" fill-rule="nonzero"/><path stroke="#000000" stroke-width="2.0" stroke-linecap="butt" d="M698.5 119.5L698.5 95.5" fill-rule="nonzero"/><path stroke="#000000" stroke-width="2.0" stroke-linecap="butt" d="M745.5 119.5L745.5 95.5" fill-rule="nonzero"/><path stroke="#000000" stroke-width="2.0" stroke-linecap="butt" d="M791.5 119.5L791.5 95.5" fill-rule="nonzero"/><path fill="#000000" d="M384.375 168.0L384.375 159.40625L385.51562 159.40625L385.51562 166.98438L389.75 166.98438L389.75 168.0L384.375 168.0ZM391.29688 160.625L391.29688 159.40625L392.35938 159.40625L392.35938 160.625L391.29688 160.625ZM391.29688 168.0L391.29688 161.78125L392.35938 161.78125L392.35938 168.0L391.29688 168.0ZM394.29688 168.0L394.29688 161.78125L395.23438 161.78125L395.23438 162.65625Q395.92188 161.64062 397.21875 161.64062Q397.78125 161.64062 398.25 161.84375Q398.73438 162.04688 398.96875 162.375Q399.20312 162.70312 399.29688 163.14062Q399.34375 163.4375 399.34375 164.17188L399.34375 168.0L398.29688 168.0L398.29688 164.21875Q398.29688 163.5625 398.17188 163.25Q398.04688 162.9375 397.73438 162.75Q397.42188 162.54688 397.0 162.54688Q396.32812 162.54688 395.82812 162.98438Q395.34375 163.40625 395.34375 164.59375L395.34375 168.0L394.29688 168.0ZM405.54688 166.0L406.64062 166.125Q406.39062 167.07812 405.6875 167.60938Q404.98438 168.14062 403.90625 168.14062Q402.54688 168.14062 401.73438 167.29688Q400.9375 166.45312 400.9375 164.9375Q400.9375 163.375 401.75 162.51562Q402.5625 161.64062 403.84375 161.64062Q405.09375 161.64062 405.875 162.48438Q406.67188 163.32812 406.67188 164.875Q406.67188 164.96875 406.67188 165.15625L402.03125 165.15625Q402.09375 166.1875 402.60938 166.73438Q403.125 167.26562 403.90625 167.26562Q404.48438 167.26562 404.89062 166.96875Q405.3125 166.65625 405.54688 166.0ZM402.09375 164.29688L405.5625 164.29688Q405.5 163.5 405.17188 163.10938Q404.65625 162.5 403.85938 162.5Q403.125 162.5 402.625 162.98438Q402.14062 163.46875 402.09375 164.29688ZM412.35938 167.23438Q411.76562 167.73438 411.21875 167.9375Q410.6875 168.14062 410.0625 168.14062Q409.03125 168.14062 408.48438 167.64062Q407.9375 167.14062 407.9375 166.35938Q407.9375 165.90625 408.14062 165.53125Q408.34375 165.14062 408.6875 164.92188Q409.03125 164.6875 409.45312 164.57812Q409.75 164.48438 410.39062 164.40625Q411.65625 164.26562 412.26562 164.04688Q412.26562 163.82812 412.26562 163.78125Q412.26562 163.125 411.96875 162.85938Q411.5625 162.51562 410.76562 162.51562Q410.03125 162.51562 409.67188 162.78125Q409.3125 163.03125 409.14062 163.6875L408.10938 163.54688Q408.25 162.89062 408.57812 162.48438Q408.90625 162.07812 409.51562 161.85938Q410.125 161.64062 410.92188 161.64062Q411.71875 161.64062 412.21875 161.82812Q412.71875 162.01562 412.95312 162.29688Q413.1875 162.57812 413.28125 163.01562Q413.32812 163.28125 413.32812 163.98438L413.32812 165.39062Q413.32812 166.85938 413.39062 167.25Q413.46875 167.64062 413.67188 168.0L412.5625 168.0Q412.40625 167.67188 412.35938 167.23438ZM412.26562 164.875Q411.6875 165.10938 410.54688 165.28125Q409.89062 165.375 409.625 165.5Q409.35938 165.60938 409.20312 165.82812Q409.0625 166.04688 409.0625 166.32812Q409.0625 166.75 409.375 167.03125Q409.70312 167.3125 410.3125 167.3125Q410.92188 167.3125 411.39062 167.04688Q411.875 166.78125 412.09375 166.3125Q412.26562 165.95312 412.26562 165.26562L412.26562 164.875ZM415.28125 168.0L415.28125 161.78125L416.23438 161.78125L416.23438 162.71875Q416.59375 162.0625 416.89062 161.85938Q417.20312 161.64062 417.57812 161.64062Q418.10938 161.64062 418.65625 161.96875L418.29688 162.95312Q417.90625 162.71875 417.53125 162.71875Q417.17188 162.71875 416.89062 162.9375Q416.625 163.14062 416.51562 163.51562Q416.32812 164.07812 416.32812 164.73438L416.32812 168.0L415.28125 168.0ZM423.26562 168.0L422.28125 168.0L422.28125 159.40625L423.34375 159.40625L423.34375 162.46875Q424.01562 161.64062 425.04688 161.64062Q425.625 161.64062 426.125 161.875Q426.64062 162.09375 426.96875 162.51562Q427.3125 162.9375 427.5 163.53125Q427.6875 164.125 427.6875 164.79688Q427.6875 166.39062 426.89062 167.26562Q426.09375 168.14062 425.0 168.14062Q423.89062 168.14062 423.26562 167.21875L423.26562 168.0ZM423.25 164.84375Q423.25 165.95312 423.5625 166.45312Q424.0625 167.26562 424.90625 167.26562Q425.59375 167.26562 426.09375 166.67188Q426.60938 166.07812 426.60938 164.875Q426.60938 163.65625 426.125 163.07812Q425.64062 162.5 424.95312 162.5Q424.26562 162.5 423.75 163.10938Q423.25 163.70312 423.25 164.84375ZM433.375 168.0L433.375 167.07812Q432.64062 168.14062 431.39062 168.14062Q430.84375 168.14062 430.35938 167.9375Q429.89062 167.71875 429.65625 167.40625Q429.42188 167.07812 429.32812 166.60938Q429.26562 166.3125 429.26562 165.625L429.26562 161.78125L430.32812 161.78125L430.32812 165.23438Q430.32812 166.04688 430.39062 166.34375Q430.48438 166.75 430.79688 167.0Q431.125 167.23438 431.60938 167.23438Q432.07812 167.23438 432.48438 167.0Q432.90625 166.75 433.07812 166.32812Q433.26562 165.90625 433.26562 165.10938L433.26562 161.78125L434.3125 161.78125L434.3125 168.0L433.375 168.0ZM440.35938 165.71875L441.39062 165.85938Q441.21875 166.92188 440.51562 167.53125Q439.8125 168.14062 438.79688 168.14062Q437.51562 168.14062 436.73438 167.3125Q435.96875 166.46875 435.96875 164.90625Q435.96875 163.90625 436.29688 163.15625Q436.64062 162.39062 437.3125 162.01562Q438.0 161.64062 438.8125 161.64062Q439.8125 161.64062 440.45312 162.15625Q441.10938 162.65625 441.29688 163.60938L440.26562 163.76562Q440.125 163.14062 439.75 162.82812Q439.375 162.5 438.84375 162.5Q438.04688 162.5 437.54688 163.07812Q437.04688 163.64062 437.04688 164.875Q437.04688 166.14062 437.53125 166.70312Q438.01562 167.26562 438.78125 167.26562Q439.40625 167.26562 439.8125 166.89062Q440.23438 166.51562 440.35938 165.71875ZM442.29688 168.0L442.29688 159.40625L443.35938 159.40625L443.35938 164.3125L445.84375 161.78125L447.21875 161.78125L444.82812 164.07812L447.45312 168.0L446.15625 168.0L444.09375 164.8125L443.35938 165.53125L443.35938 168.0L442.29688 168.0ZM452.54688 166.0L453.64062 166.125Q453.39062 167.07812 452.6875 167.60938Q451.98438 168.14062 450.90625 168.14062Q449.54688 168.14062 448.73438 167.29688Q447.9375 166.45312 447.9375 164.9375Q447.9375 163.375 448.75 162.51562Q449.5625 161.64062 450.84375 161.64062Q452.09375 161.64062 452.875 162.48438Q453.67188 163.32812 453.67188 164.875Q453.67188 164.96875 453.67188 165.15625L449.03125 165.15625Q449.09375 166.1875 449.60938 166.73438Q450.125 167.26562 450.90625 167.26562Q451.48438 167.26562 451.89062 166.96875Q452.3125 166.65625 452.54688 166.0ZM449.09375 164.29688L452.5625 164.29688Q452.5 163.5 452.17188 163.10938Q451.65625 162.5 450.85938 162.5Q450.125 162.5 449.625 162.98438Q449.14062 163.46875 449.09375 164.29688ZM457.59375 167.0625L457.75 167.98438Q457.29688 168.07812 456.95312 168.07812Q456.375 168.07812 456.0625 167.90625Q455.75 167.71875 455.60938 167.42188Q455.48438 167.125 455.48438 166.17188L455.48438 162.59375L454.71875 162.59375L454.71875 161.78125L455.48438 161.78125L455.48438 160.23438L456.53125 159.60938L456.53125 161.78125L457.59375 161.78125L457.59375 162.59375L456.53125 162.59375L456.53125 166.23438Q456.53125 166.6875 456.57812 166.8125Q456.64062 166.9375 456.76562 167.01562Q456.89062 167.09375 457.125 167.09375Q457.3125 167.09375 457.59375 167.0625ZM457.875 166.14062L458.90625 165.98438Q459.0 166.60938 459.39062 166.9375Q459.79688 167.26562 460.53125 167.26562Q461.25 167.26562 461.59375 166.98438Q461.95312 166.6875 461.95312 166.28125Q461.95312 165.92188 461.64062 165.71875Q461.42188 165.57812 460.5625 165.35938Q459.40625 165.0625 458.95312 164.85938Q458.51562 164.64062 458.28125 164.26562Q458.04688 163.89062 458.04688 163.42188Q458.04688 163.01562 458.23438 162.65625Q458.42188 162.29688 458.75 162.0625Q459.0 161.89062 459.42188 161.76562Q459.84375 161.64062 460.34375 161.64062Q461.0625 161.64062 461.60938 161.85938Q462.17188 162.0625 462.4375 162.42188Q462.70312 162.78125 462.79688 163.375L461.76562 163.51562Q461.70312 163.04688 461.35938 162.78125Q461.03125 162.5 460.40625 162.5Q459.6875 162.5 459.375 162.75Q459.0625 162.98438 459.0625 163.3125Q459.0625 163.51562 459.1875 163.67188Q459.32812 163.84375 459.59375 163.95312Q459.75 164.01562 460.53125 164.21875Q461.65625 164.53125 462.09375 164.71875Q462.53125 164.90625 462.78125 165.26562Q463.03125 165.625 463.03125 166.17188Q463.03125 166.70312 462.71875 167.17188Q462.42188 167.625 461.84375 167.89062Q461.26562 168.14062 460.53125 168.14062Q459.3125 168.14062 458.67188 167.64062Q458.04688 167.125 457.875 166.14062Z" fill-rule="nonzero"/><path fill="#000000" d="M20.0 106.625L11.40625 106.625L11.40625 105.484375L18.984375 105.484375L18.984375 101.25L20.0 101.25L20.0 106.625ZM16.890625 100.09375Q15.15625 100.09375 14.328125 99.140625Q13.640625 98.34375 13.640625 97.1875Q13.640625 95.90625 14.484375 95.09375Q15.3125 94.265625 16.796875 94.265625Q18.0 94.265625 18.6875 94.625Q19.375 94.984375 19.765625 95.6875Q20.140625 96.375 20.140625 97.1875Q20.140625 98.484375 19.3125 99.296875Q18.46875 100.09375 16.890625 100.09375ZM16.890625 99.015625Q18.078125 99.015625 18.671875 98.5Q19.265625 97.96875 19.265625 97.1875Q19.265625 96.390625 18.671875 95.875Q18.078125 95.359375 16.859375 95.359375Q15.703125 95.359375 15.109375 95.890625Q14.515625 96.40625 14.515625 97.1875Q14.515625 97.96875 15.109375 98.5Q15.6875 99.015625 16.890625 99.015625ZM20.515625 92.90625L20.671875 91.875Q21.140625 91.8125 21.359375 91.515625Q21.65625 91.125 21.65625 90.453125Q21.65625 89.71875 21.359375 89.328125Q21.0625 88.921875 20.546875 88.78125Q20.21875 88.6875 19.1875 88.703125Q20.0 89.390625 20.0 90.421875Q20.0 91.703125 19.078125 92.40625Q18.140625 93.109375 16.859375 93.109375Q15.96875 93.109375 15.21875 92.796875Q14.453125 92.46875 14.046875 91.859375Q13.640625 91.25 13.640625 90.421875Q13.640625 89.3125 14.53125 88.59375L13.78125 88.59375L13.78125 87.625L19.15625 87.625Q20.609375 87.625 21.21875 87.921875Q21.828125 88.21875 22.171875 88.859375Q22.53125 89.5 22.53125 90.4375Q22.53125 91.546875 22.03125 92.234375Q21.53125 92.921875 20.515625 92.90625ZM16.78125 92.03125Q18.0 92.03125 18.5625 91.546875Q19.125 91.0625 19.125 90.328125Q19.125 89.59375 18.5625 89.109375Q18.0 88.609375 16.8125 88.609375Q15.671875 88.609375 15.09375 89.125Q14.515625 89.625 14.515625 90.34375Q14.515625 91.046875 15.09375 91.546875Q15.65625 92.03125 16.78125 92.03125ZM20.0 81.734375L20.0 82.71875L11.40625 82.71875L11.40625 81.65625L14.46875 81.65625Q13.640625 80.984375 13.640625 79.953125Q13.640625 79.375 13.875 78.875Q14.09375 78.359375 14.515625 78.03125Q14.9375 77.6875 15.53125 77.5Q16.125 77.3125 16.796875 77.3125Q18.390625 77.3125 19.265625 78.109375Q20.140625 78.90625 20.140625 80.0Q20.140625 81.109375 19.21875 81.734375L20.0 81.734375ZM16.84375 81.75Q17.953125 81.75 18.453125 81.4375Q19.265625 80.9375 19.265625 80.09375Q19.265625 79.40625 18.671875 78.90625Q18.078125 78.390625 16.875 78.390625Q15.65625 78.390625 15.078125 78.875Q14.5 79.359375 14.5 80.046875Q14.5 80.734375 15.109375 81.25Q15.703125 81.75 16.84375 81.75ZM20.0 71.625L19.078125 71.625Q20.140625 72.359375 20.140625 73.609375Q20.140625 74.15625 19.9375 74.640625Q19.71875 75.109375 19.40625 75.34375Q19.078125 75.578125 18.609375 75.671875Q18.3125 75.734375 17.625 75.734375L13.78125 75.734375L13.78125 74.671875L17.234375 74.671875Q18.046875 74.671875 18.34375 74.609375Q18.75 74.515625 19.0 74.203125Q19.234375 73.875 19.234375 73.390625Q19.234375 72.921875 19.0 72.515625Q18.75 72.09375 18.328125 71.921875Q17.90625 71.734375 17.109375 71.734375L13.78125 71.734375L13.78125 70.6875L20.0 70.6875L20.0 71.625ZM17.71875 64.640625L17.859375 63.609375Q18.921875 63.78125 19.53125 64.484375Q20.140625 65.1875 20.140625 66.203125Q20.140625 67.484375 19.3125 68.265625Q18.46875 69.03125 16.90625 69.03125Q15.90625 69.03125 15.15625 68.703125Q14.390625 68.359375 14.015625 67.6875Q13.640625 67.0 13.640625 66.1875Q13.640625 65.1875 14.15625 64.546875Q14.65625 63.890625 15.609375 63.703125L15.765625 64.734375Q15.140625 64.875 14.828125 65.25Q14.5 65.625 14.5 66.15625Q14.5 66.953125 15.078125 67.453125Q15.640625 67.953125 16.875 67.953125Q18.140625 67.953125 18.703125 67.46875Q19.265625 66.984375 19.265625 66.21875Q19.265625 65.59375 18.890625 65.1875Q18.515625 64.765625 17.71875 64.640625ZM20.0 62.703125L11.40625 62.703125L11.40625 61.640625L16.3125 61.640625L13.78125 59.15625L13.78125 57.78125L16.078125 60.171875L20.0 57.546875L20.0 58.84375L16.8125 60.90625L17.53125 61.640625L20.0 61.640625L20.0 62.703125ZM18.0 52.453125L18.125 51.359375Q19.078125 51.609375 19.609375 52.3125Q20.140625 53.015625 20.140625 54.09375Q20.140625 55.453125 19.296875 56.265625Q18.453125 57.0625 16.9375 57.0625Q15.375 57.0625 14.515625 56.25Q13.640625 55.4375 13.640625 54.15625Q13.640625 52.90625 14.484375 52.125Q15.328125 51.328125 16.875 51.328125Q16.96875 51.328125 17.15625 51.328125L17.15625 55.96875Q18.1875 55.90625 18.734375 55.390625Q19.265625 54.875 19.265625 54.09375Q19.265625 53.515625 18.96875 53.109375Q18.65625 52.6875 18.0 52.453125ZM16.296875 55.90625L16.296875 52.4375Q15.5 52.5 15.109375 52.828125Q14.5 53.34375 14.5 54.140625Q14.5 54.875 14.984375 55.375Q15.46875 55.859375 16.296875 55.90625ZM19.0625 47.40625L19.984375 47.25Q20.078125 47.703125 20.078125 48.046875Q20.078125 48.625 19.90625 48.9375Q19.71875 49.25 19.421875 49.390625Q19.125 49.515625 18.171875 49.515625L14.59375 49.515625L14.59375 50.28125L13.78125 50.28125L13.78125 49.515625L12.234375 49.515625L11.609375 48.46875L13.78125 48.46875L13.78125 47.40625L14.59375 47.40625L14.59375 48.46875L18.234375 48.46875Q18.6875 48.46875 18.8125 48.421875Q18.9375 48.359375 19.015625 48.234375Q19.09375 48.109375 19.09375 47.875Q19.09375 47.6875 19.0625 47.40625ZM18.140625 47.125L17.984375 46.09375Q18.609375 46.0 18.9375 45.609375Q19.265625 45.203125 19.265625 44.46875Q19.265625 43.75 18.984375 43.40625Q18.6875 43.046875 18.28125 43.046875Q17.921875 43.046875 17.71875 43.359375Q17.578125 43.578125 17.359375 44.4375Q17.0625 45.59375 16.859375 46.046875Q16.640625 46.484375 16.265625 46.71875Q15.890625 46.953125 15.421875 46.953125Q15.015625 46.953125 14.65625 46.765625Q14.296875 46.578125 14.0625 46.25Q13.890625 46.0 13.765625 45.578125Q13.640625 45.15625 13.640625 44.65625Q13.640625 43.9375 13.859375 43.390625Q14.0625 42.828125 14.421875 42.5625Q14.78125 42.296875 15.375 42.203125L15.515625 43.234375Q15.046875 43.296875 14.78125 43.640625Q14.5 43.96875 14.5 44.59375Q14.5 45.3125 14.75 45.625Q14.984375 45.9375 15.3125 45.9375Q15.515625 45.9375 15.671875 45.8125Q15.84375 45.671875 15.953125 45.40625Q16.015625 45.25 16.21875 44.46875Q16.53125 43.34375 16.71875 42.90625Q16.90625 42.46875 17.265625 42.21875Q17.625 41.96875 18.171875 41.96875Q18.703125 41.96875 19.171875 42.28125Q19.625 42.578125 19.890625 43.15625Q20.140625 43.734375 20.140625 44.46875Q20.140625 45.6875 19.640625 46.328125Q19.125 46.953125 18.140625 47.125Z" fill-rule="nonzero"/><path fill="#000000" d="M26.46875 136.0L25.421875 136.0L25.421875 129.28125Q25.03125 129.64062 24.40625 130.01562Q23.796875 130.375 23.3125 130.54688L23.3125 129.53125Q24.1875 129.10938 24.84375 128.53125Q25.515625 127.9375 25.796875 127.375L26.46875 127.375L26.46875 136.0ZM30.09375 136.0L30.09375 134.79688L31.296875 134.79688L31.296875 136.0L30.09375 136.0ZM32.5 131.76562Q32.5 130.23438 32.8125 129.3125Q33.125 128.375 33.734375 127.875Q34.359375 127.375 35.296875 127.375Q35.984375 127.375 36.5 127.65625Q37.03125 127.9375 37.375 128.46875Q37.71875 128.98438 37.90625 129.73438Q38.09375 130.48438 38.09375 131.76562Q38.09375 133.28125 37.78125 134.20312Q37.484375 135.125 36.859375 135.64062Q36.25 136.14062 35.296875 136.14062Q34.0625 136.14062 33.34375 135.25Q32.5 134.1875 32.5 131.76562ZM33.578125 131.76562Q33.578125 133.875 34.078125 134.57812Q34.578125 135.28125 35.296875 135.28125Q36.03125 135.28125 36.515625 134.57812Q37.015625 133.875 37.015625 131.76562Q37.015625 129.64062 36.515625 128.95312Q36.03125 128.25 35.28125 128.25Q34.5625 128.25 34.125 128.85938Q33.578125 129.64062 33.578125 131.76562ZM39.5 131.76562Q39.5 130.23438 39.8125 129.3125Q40.125 128.375 40.734375 127.875Q41.359375 127.375 42.296875 127.375Q42.984375 127.375 43.5 127.65625Q44.03125 127.9375 44.375 128.46875Q44.71875 128.98438 44.90625 129.73438Q45.09375 130.48438 45.09375 131.76562Q45.09375 133.28125 44.78125 134.20312Q44.484375 135.125 43.859375 135.64062Q43.25 136.14062 42.296875 136.14062Q41.0625 136.14062 40.34375 135.25Q39.5 134.1875 39.5 131.76562ZM40.578125 131.76562Q40.578125 133.875 41.078125 134.57812Q41.578125 135.28125 42.296875 135.28125Q43.03125 135.28125 43.515625 134.57812Q44.015625 133.875 44.015625 131.76562Q44.015625 129.64062 43.515625 128.95312Q43.03125 128.25 42.28125 128.25Q41.5625 128.25 41.125 128.85938Q40.578125 129.64062 40.578125 131.76562ZM46.5 131.76562Q46.5 130.23438 46.8125 129.3125Q47.125 128.375 47.734375 127.875Q48.359375 127.375 49.296875 127.375Q49.984375 127.375 50.5 127.65625Q51.03125 127.9375 51.375 128.46875Q51.71875 128.98438 51.90625 129.73438Q52.09375 130.48438 52.09375 131.76562Q52.09375 133.28125 51.78125 134.20312Q51.484375 135.125 50.859375 135.64062Q50.25 136.14062 49.296875 136.14062Q48.0625 136.14062 47.34375 135.25Q46.5 134.1875 46.5 131.76562ZM47.578125 131.76562Q47.578125 133.875 48.078125 134.57812Q48.578125 135.28125 49.296875 135.28125Q50.03125 135.28125 50.515625 134.57812Q51.015625 133.875 51.015625 131.76562Q51.015625 129.64062 50.515625 128.95312Q50.03125 128.25 49.28125 128.25Q48.5625 128.25 48.125 128.85938Q47.578125 129.64062 47.578125 131.76562ZM53.5 131.76562Q53.5 130.23438 53.8125 129.3125Q54.125 128.375 54.734375 127.875Q55.359375 127.375 56.296875 127.375Q56.984375 127.375 57.5 127.65625Q58.03125 127.9375 58.375 128.46875Q58.71875 128.98438 58.90625 129.73438Q59.09375 130.48438 59.09375 131.76562Q59.09375 133.28125 58.78125 134.20312Q58.484375 135.125 57.859375 135.64062Q57.25 136.14062 56.296875 136.14062Q55.0625 136.14062 54.34375 135.25Q53.5 134.1875 53.5 131.76562ZM54.578125 131.76562Q54.578125 133.875 55.078125 134.57812Q55.578125 135.28125 56.296875 135.28125Q57.03125 135.28125 57.515625 134.57812Q58.015625 133.875 58.015625 131.76562Q58.015625 129.64062 57.515625 128.95312Q57.03125 128.25 56.28125 128.25Q55.5625 128.25 55.125 128.85938Q54.578125 129.64062 54.578125 131.76562Z" fill-rule="nonzero"/><path fill="#000000" d="M73.40502 136.0L72.35815 136.0L72.35815 129.28125Q71.96752 129.64062 71.34252 130.01562Q70.73315 130.375 70.24877 130.54688L70.24877 129.53125Q71.12377 129.10938 71.78002 128.53125Q72.4519 127.9375 72.73315 127.375L73.40502 127.375L73.40502 136.0ZM77.03002 136.0L77.03002 134.79688L78.23315 134.79688L78.23315 136.0L77.03002 136.0ZM79.43627 131.76562Q79.43627 130.23438 79.74877 129.3125Q80.06127 128.375 80.67065 127.875Q81.29565 127.375 82.23315 127.375Q82.92065 127.375 83.43627 127.65625Q83.96752 127.9375 84.31127 128.46875Q84.65502 128.98438 84.84252 129.73438Q85.03002 130.48438 85.03002 131.76562Q85.03002 133.28125 84.71752 134.20312Q84.42065 135.125 83.79565 135.64062Q83.18627 136.14062 82.23315 136.14062Q80.99877 136.14062 80.28002 135.25Q79.43627 134.1875 79.43627 131.76562ZM80.5144 131.76562Q80.5144 133.875 81.0144 134.57812Q81.5144 135.28125 82.23315 135.28125Q82.96752 135.28125 83.4519 134.57812Q83.9519 133.875 83.9519 131.76562Q83.9519 129.64062 83.4519 128.95312Q82.96752 128.25 82.21752 128.25Q81.49877 128.25 81.06127 128.85938Q80.5144 129.64062 80.5144 131.76562ZM91.90502 129.51562L90.85815 129.59375Q90.71752 128.96875 90.46752 128.6875Q90.03002 128.23438 89.40502 128.23438Q88.90502 128.23438 88.5144 128.51562Q88.03002 128.89062 87.73315 129.59375Q87.4519 130.28125 87.43627 131.5625Q87.81127 130.98438 88.35815 130.70312Q88.92065 130.42188 89.53002 130.42188Q90.5769 130.42188 91.31127 131.20312Q92.06127 131.98438 92.06127 133.20312Q92.06127 134.01562 91.7019 134.71875Q91.35815 135.40625 90.74877 135.78125Q90.1394 136.14062 89.37377 136.14062Q88.04565 136.14062 87.21752 135.17188Q86.3894 134.20312 86.3894 131.98438Q86.3894 129.48438 87.31127 128.35938Q88.10815 127.375 89.46752 127.375Q90.48315 127.375 91.12377 127.953125Q91.78002 128.51562 91.90502 129.51562ZM87.60815 133.21875Q87.60815 133.76562 87.8269 134.26562Q88.06127 134.75 88.46752 135.01562Q88.8894 135.28125 89.35815 135.28125Q90.0144 135.28125 90.49877 134.75Q90.98315 134.20312 90.98315 133.28125Q90.98315 132.39062 90.49877 131.875Q90.03002 131.35938 89.31127 131.35938Q88.59252 131.35938 88.09252 131.875Q87.60815 132.39062 87.60815 133.21875ZM98.98315 134.98438L98.98315 136.0L93.29565 136.0Q93.29565 135.625 93.42065 135.26562Q93.6394 134.6875 94.10815 134.125Q94.59252 133.5625 95.49877 132.82812Q96.90502 131.67188 97.3894 131.0Q97.8894 130.32812 97.8894 129.73438Q97.8894 129.10938 97.43627 128.6875Q96.98315 128.25 96.2644 128.25Q95.49877 128.25 95.04565 128.70312Q94.59252 129.15625 94.5769 129.96875L93.49877 129.85938Q93.60815 128.64062 94.3269 128.01562Q95.06127 127.375 96.29565 127.375Q97.53002 127.375 98.24877 128.0625Q98.96752 128.75 98.96752 129.76562Q98.96752 130.28125 98.74877 130.78125Q98.54565 131.26562 98.04565 131.82812Q97.56127 132.375 96.43627 133.32812Q95.48315 134.125 95.2019 134.42188Q94.93627 134.70312 94.7644 134.98438L98.98315 134.98438ZM100.43627 133.75L101.54565 133.65625Q101.67065 134.46875 102.10815 134.875Q102.56127 135.28125 103.2019 135.28125Q103.9519 135.28125 104.48315 134.70312Q105.0144 134.125 105.0144 133.1875Q105.0144 132.28125 104.49877 131.76562Q103.99877 131.23438 103.17065 131.23438Q102.67065 131.23438 102.24877 131.46875Q101.84252 131.70312 101.60815 132.0625L100.62377 131.9375L101.4519 127.53125L105.73315 127.53125L105.73315 128.53125L102.29565 128.53125L101.84252 130.84375Q102.60815 130.29688 103.4519 130.29688Q104.5769 130.29688 105.34252 131.07812Q106.12377 131.85938 106.12377 133.09375Q106.12377 134.25 105.4519 135.10938Q104.62377 136.14062 103.2019 136.14062Q102.03002 136.14062 101.28002 135.48438Q100.54565 134.82812 100.43627 133.75Z" fill-rule="nonzero"/><path fill="#000000" d="M120.3413 136.0L119.294426 136.0L119.294426 129.28125Q118.9038 129.64062 118.2788 130.01562Q117.669426 130.375 117.18505 130.54688L117.18505 129.53125Q118.06005 129.10938 118.7163 128.53125Q119.388176 127.9375 119.669426 127.375L120.3413 127.375L120.3413 136.0ZM123.9663 136.0L123.9663 134.79688L125.169426 134.79688L125.169426 136.0L123.9663 136.0ZM130.34131 136.0L129.29443 136.0L129.29443 129.28125Q128.90381 129.64062 128.27881 130.01562Q127.669426 130.375 127.18505 130.54688L127.18505 129.53125Q128.06006 129.10938 128.71631 128.53125Q129.38818 127.9375 129.66943 127.375L130.34131 127.375L130.34131 136.0ZM138.91943 134.98438L138.91943 136.0L133.23193 136.0Q133.23193 135.625 133.35693 135.26562Q133.57568 134.6875 134.04443 134.125Q134.52881 133.5625 135.43506 132.82812Q136.84131 131.67188 137.32568 131.0Q137.82568 130.32812 137.82568 129.73438Q137.82568 129.10938 137.37256 128.6875Q136.91943 128.25 136.20068 128.25Q135.43506 128.25 134.98193 128.70312Q134.52881 129.15625 134.51318 129.96875L133.43506 129.85938Q133.54443 128.64062 134.26318 128.01562Q134.99756 127.375 136.23193 127.375Q137.46631 127.375 138.18506 128.0625Q138.90381 128.75 138.90381 129.76562Q138.90381 130.28125 138.68506 130.78125Q138.48193 131.26562 137.98193 131.82812Q137.49756 132.375 136.37256 133.32812Q135.41943 134.125 135.13818 134.42188Q134.87256 134.70312 134.70068 134.98438L138.91943 134.98438ZM140.37256 133.75L141.48193 133.65625Q141.60693 134.46875 142.04443 134.875Q142.49756 135.28125 143.13818 135.28125Q143.88818 135.28125 144.41943 134.70312Q144.95068 134.125 144.95068 133.1875Q144.95068 132.28125 144.43506 131.76562Q143.93506 131.23438 143.10693 131.23438Q142.60693 131.23438 142.18506 131.46875Q141.77881 131.70312 141.54443 132.0625L140.56006 131.9375L141.38818 127.53125L145.66943 127.53125L145.66943 128.53125L142.23193 128.53125L141.77881 130.84375Q142.54443 130.29688 143.38818 130.29688Q144.51318 130.29688 145.27881 131.07812Q146.06006 131.85938 146.06006 133.09375Q146.06006 134.25 145.38818 135.10938Q144.56006 136.14062 143.13818 136.14062Q141.96631 136.14062 141.21631 135.48438Q140.48193 134.82812 140.37256 133.75ZM147.37256 131.76562Q147.37256 130.23438 147.68506 129.3125Q147.99756 128.375 148.60693 127.875Q149.23193 127.375 150.16943 127.375Q150.85693 127.375 151.37256 127.65625Q151.90381 127.9375 152.24756 128.46875Q152.59131 128.98438 152.77881 129.73438Q152.96631 130.48438 152.96631 131.76562Q152.96631 133.28125 152.65381 134.20312Q152.35693 135.125 151.73193 135.64062Q151.12256 136.14062 150.16943 136.14062Q148.93506 136.14062 148.21631 135.25Q147.37256 134.1875 147.37256 131.76562ZM148.45068 131.76562Q148.45068 133.875 148.95068 134.57812Q149.45068 135.28125 150.16943 135.28125Q150.90381 135.28125 151.38818 134.57812Q151.88818 133.875 151.88818 131.76562Q151.88818 129.64062 151.38818 128.95312Q150.90381 128.25 150.15381 128.25Q149.43506 128.25 148.99756 128.85938Q148.45068 129.64062 148.45068 131.76562Z" fill-rule="nonzero"/><path fill="#000000" d="M167.27757 136.0L166.2307 136.0L166.2307 129.28125Q165.84007 129.64062 165.21507 130.01562Q164.6057 130.375 164.12132 130.54688L164.12132 129.53125Q164.99632 129.10938 165.65257 128.53125Q166.32445 127.9375 166.6057 127.375L167.27757 127.375L167.27757 136.0ZM170.90257 136.0L170.90257 134.79688L172.1057 134.79688L172.1057 136.0L170.90257 136.0ZM177.27757 136.0L176.2307 136.0L176.2307 129.28125Q175.84007 129.64062 175.21507 130.01562Q174.6057 130.375 174.12132 130.54688L174.12132 129.53125Q174.99632 129.10938 175.65257 128.53125Q176.32445 127.9375 176.6057 127.375L177.27757 127.375L177.27757 136.0ZM181.93382 131.34375Q181.27757 131.09375 180.94945 130.65625Q180.63695 130.20312 180.63695 129.59375Q180.63695 128.65625 181.30882 128.01562Q181.99632 127.375 183.1057 127.375Q184.2307 127.375 184.9182 128.03125Q185.6057 128.6875 185.6057 129.625Q185.6057 130.21875 185.2932 130.65625Q184.9807 131.09375 184.34007 131.34375Q185.13695 131.59375 185.5432 132.17188Q185.94945 132.75 185.94945 133.54688Q185.94945 134.64062 185.1682 135.39062Q184.40257 136.14062 183.12132 136.14062Q181.8557 136.14062 181.07445 135.39062Q180.2932 134.64062 180.2932 133.51562Q180.2932 132.67188 180.71507 132.10938Q181.15257 131.54688 181.93382 131.34375ZM181.71507 129.54688Q181.71507 130.15625 182.1057 130.54688Q182.51195 130.9375 183.13695 130.9375Q183.74632 130.9375 184.13695 130.5625Q184.52757 130.17188 184.52757 129.60938Q184.52757 129.03125 184.12132 128.64062Q183.71507 128.23438 183.12132 128.23438Q182.51195 128.23438 182.1057 128.625Q181.71507 129.01562 181.71507 129.54688ZM181.38695 133.51562Q181.38695 133.96875 181.59007 134.39062Q181.80882 134.8125 182.2307 135.04688Q182.65257 135.28125 183.13695 135.28125Q183.88695 135.28125 184.37132 134.79688Q184.87132 134.3125 184.87132 133.5625Q184.87132 132.79688 184.37132 132.29688Q183.87132 131.79688 183.1057 131.79688Q182.3557 131.79688 181.87132 132.29688Q181.38695 132.78125 181.38695 133.51562ZM187.37132 128.53125L187.37132 127.515625L192.93382 127.515625L192.93382 128.34375Q192.12132 129.21875 191.30882 130.67188Q190.51195 132.10938 190.07445 133.64062Q189.74632 134.71875 189.6682 136.0L188.57445 136.0Q188.59007 134.98438 188.96507 133.54688Q189.3557 132.10938 190.05882 130.78125Q190.77757 129.45312 191.59007 128.53125L187.37132 128.53125ZM194.30882 133.75L195.4182 133.65625Q195.5432 134.46875 195.9807 134.875Q196.43382 135.28125 197.07445 135.28125Q197.82445 135.28125 198.3557 134.70312Q198.88695 134.125 198.88695 133.1875Q198.88695 132.28125 198.37132 131.76562Q197.87132 131.23438 197.0432 131.23438Q196.5432 131.23438 196.12132 131.46875Q195.71507 131.70312 195.4807 132.0625L194.49632 131.9375L195.32445 127.53125L199.6057 127.53125L199.6057 128.53125L196.1682 128.53125L195.71507 130.84375Q196.4807 130.29688 197.32445 130.29688Q198.44945 130.29688 199.21507 131.07812Q199.99632 131.85938 199.99632 133.09375Q199.99632 134.25 199.32445 135.10938Q198.49632 136.14062 197.07445 136.14062Q195.90257 136.14062 195.15257 135.48438Q194.4182 134.82812 194.30882 133.75Z" fill-rule="nonzero"/><path fill="#000000" d="M214.21385 136.0L213.16698 136.0L213.16698 129.28125Q212.77635 129.64062 212.15135 130.01562Q211.54198 130.375 211.0576 130.54688L211.0576 129.53125Q211.9326 129.10938 212.58885 128.53125Q213.26073 127.9375 213.54198 127.375L214.21385 127.375L214.21385 136.0ZM217.83885 136.0L217.83885 134.79688L219.04198 134.79688L219.04198 136.0L217.83885 136.0ZM225.79198 134.98438L225.79198 136.0L220.10448 136.0Q220.10448 135.625 220.22948 135.26562Q220.44823 134.6875 220.91698 134.125Q221.40135 133.5625 222.3076 132.82812Q223.71385 131.67188 224.19823 131.0Q224.69823 130.32812 224.69823 129.73438Q224.69823 129.10938 224.2451 128.6875Q223.79198 128.25 223.07323 128.25Q222.3076 128.25 221.85448 128.70312Q221.40135 129.15625 221.38573 129.96875L220.3076 129.85938Q220.41698 128.64062 221.13573 128.01562Q221.8701 127.375 223.10448 127.375Q224.33885 127.375 225.0576 128.0625Q225.77635 128.75 225.77635 129.76562Q225.77635 130.28125 225.5576 130.78125Q225.35448 131.26562 224.85448 131.82812Q224.3701 132.375 223.2451 133.32812Q222.29198 134.125 222.01073 134.42188Q221.7451 134.70312 221.57323 134.98438L225.79198 134.98438ZM227.2451 133.75L228.35448 133.65625Q228.47948 134.46875 228.91698 134.875Q229.3701 135.28125 230.01073 135.28125Q230.76073 135.28125 231.29198 134.70312Q231.82323 134.125 231.82323 133.1875Q231.82323 132.28125 231.3076 131.76562Q230.8076 131.23438 229.97948 131.23438Q229.47948 131.23438 229.0576 131.46875Q228.65135 131.70312 228.41698 132.0625L227.4326 131.9375L228.26073 127.53125L232.54198 127.53125L232.54198 128.53125L229.10448 128.53125L228.65135 130.84375Q229.41698 130.29688 230.26073 130.29688Q231.38573 130.29688 232.15135 131.07812Q232.9326 131.85938 232.9326 133.09375Q232.9326 134.25 232.26073 135.10938Q231.4326 136.14062 230.01073 136.14062Q228.83885 136.14062 228.08885 135.48438Q227.35448 134.82812 227.2451 133.75ZM234.2451 131.76562Q234.2451 130.23438 234.5576 129.3125Q234.8701 128.375 235.47948 127.875Q236.10448 127.375 237.04198 127.375Q237.72948 127.375 238.2451 127.65625Q238.77635 127.9375 239.1201 128.46875Q239.46385 128.98438 239.65135 129.73438Q239.83885 130.48438 239.83885 131.76562Q239.83885 133.28125 239.52635 134.20312Q239.22948 135.125 238.60448 135.64062Q237.9951 136.14062 237.04198 136.14062Q235.8076 136.14062 235.08885 135.25Q234.2451 134.1875 234.2451 131.76562ZM235.32323 131.76562Q235.32323 133.875 235.82323 134.57812Q236.32323 135.28125 237.04198 135.28125Q237.77635 135.28125 238.26073 134.57812Q238.76073 133.875 238.76073 131.76562Q238.76073 129.64062 238.26073 128.95312Q237.77635 128.25 237.02635 128.25Q236.3076 128.25 235.8701 128.85938Q235.32323 129.64062 235.32323 131.76562ZM241.2451 131.76562Q241.2451 130.23438 241.5576 129.3125Q241.8701 128.375 242.47948 127.875Q243.10448 127.375 244.04198 127.375Q244.72948 127.375 245.2451 127.65625Q245.77635 127.9375 246.1201 128.46875Q246.46385 128.98438 246.65135 129.73438Q246.83885 130.48438 246.83885 131.76562Q246.83885 133.28125 246.52635 134.20312Q246.22948 135.125 245.60448 135.64062Q244.9951 136.14062 244.04198 136.14062Q242.8076 136.14062 242.08885 135.25Q241.2451 134.1875 241.2451 131.76562ZM242.32323 131.76562Q242.32323 133.875 242.82323 134.57812Q243.32323 135.28125 244.04198 135.28125Q244.77635 135.28125 245.26073 134.57812Q245.76073 133.875 245.76073 131.76562Q245.76073 129.64062 245.26073 128.95312Q244.77635 128.25 244.02635 128.25Q243.3076 128.25 242.8701 128.85938Q242.32323 129.64062 242.32323 131.76562Z" fill-rule="nonzero"/><path fill="#000000" d="M261.15012 136.0L260.10324 136.0L260.10324 129.28125Q259.71262 129.64062 259.08762 130.01562Q258.47824 130.375 257.99387 130.54688L257.99387 129.53125Q258.86887 129.10938 259.52512 128.53125Q260.197 127.9375 260.47824 127.375L261.15012 127.375L261.15012 136.0ZM264.77512 136.0L264.77512 134.79688L265.97824 134.79688L265.97824 136.0L264.77512 136.0ZM267.18137 133.73438L268.24387 133.59375Q268.41574 134.48438 268.85324 134.89062Q269.29074 135.28125 269.91574 135.28125Q270.66574 135.28125 271.18137 134.76562Q271.697 134.25 271.697 133.48438Q271.697 132.76562 271.21262 132.29688Q270.74387 131.8125 270.0095 131.8125Q269.71262 131.8125 269.2595 131.9375L269.3845 131.0Q269.49387 131.01562 269.55637 131.01562Q270.22824 131.01562 270.7595 130.67188Q271.30637 130.3125 271.30637 129.57812Q271.30637 129.0 270.91574 128.625Q270.52512 128.23438 269.90012 128.23438Q269.29074 128.23438 268.86887 128.625Q268.46262 129.01562 268.35324 129.78125L267.29074 129.59375Q267.47824 128.54688 268.16574 127.96875Q268.85324 127.375 269.86887 127.375Q270.572 127.375 271.16574 127.6875Q271.7595 127.984375 272.072 128.5Q272.3845 129.01562 272.3845 129.60938Q272.3845 130.15625 272.08762 130.625Q271.79074 131.07812 271.21262 131.34375Q271.96262 131.51562 272.3845 132.07812Q272.80637 132.625 272.80637 133.46875Q272.80637 134.59375 271.97824 135.375Q271.16574 136.15625 269.91574 136.15625Q268.79074 136.15625 268.04074 135.48438Q267.29074 134.79688 267.18137 133.73438ZM278.15012 136.0L277.10324 136.0L277.10324 129.28125Q276.71262 129.64062 276.08762 130.01562Q275.47824 130.375 274.99387 130.54688L274.99387 129.53125Q275.86887 129.10938 276.52512 128.53125Q277.197 127.9375 277.47824 127.375L278.15012 127.375L278.15012 136.0ZM286.72824 134.98438L286.72824 136.0L281.04074 136.0Q281.04074 135.625 281.16574 135.26562Q281.3845 134.6875 281.85324 134.125Q282.33762 133.5625 283.24387 132.82812Q284.65012 131.67188 285.1345 131.0Q285.6345 130.32812 285.6345 129.73438Q285.6345 129.10938 285.18137 128.6875Q284.72824 128.25 284.0095 128.25Q283.24387 128.25 282.79074 128.70312Q282.33762 129.15625 282.322 129.96875L281.24387 129.85938Q281.35324 128.64062 282.072 128.01562Q282.80637 127.375 284.04074 127.375Q285.27512 127.375 285.99387 128.0625Q286.71262 128.75 286.71262 129.76562Q286.71262 130.28125 286.49387 130.78125Q286.29074 131.26562 285.79074 131.82812Q285.30637 132.375 284.18137 133.32812Q283.22824 134.125 282.947 134.42188Q282.68137 134.70312 282.5095 134.98438L286.72824 134.98438ZM288.18137 133.75L289.29074 133.65625Q289.41574 134.46875 289.85324 134.875Q290.30637 135.28125 290.947 135.28125Q291.697 135.28125 292.22824 134.70312Q292.7595 134.125 292.7595 133.1875Q292.7595 132.28125 292.24387 131.76562Q291.74387 131.23438 290.91574 131.23438Q290.41574 131.23438 289.99387 131.46875Q289.58762 131.70312 289.35324 132.0625L288.36887 131.9375L289.197 127.53125L293.47824 127.53125L293.47824 128.53125L290.04074 128.53125L289.58762 130.84375Q290.35324 130.29688 291.197 130.29688Q292.322 130.29688 293.08762 131.07812Q293.86887 131.85938 293.86887 133.09375Q293.86887 134.25 293.197 135.10938Q292.36887 136.14062 290.947 136.14062Q289.77512 136.14062 289.02512 135.48438Q288.29074 134.82812 288.18137 133.75Z" fill-rule="nonzero"/><path fill="#000000" d="M308.0864 136.0L307.03952 136.0L307.03952 129.28125Q306.6489 129.64062 306.0239 130.01562Q305.41452 130.375 304.93015 130.54688L304.93015 129.53125Q305.80515 129.10938 306.4614 128.53125Q307.13327 127.9375 307.41452 127.375L308.0864 127.375L308.0864 136.0ZM311.7114 136.0L311.7114 134.79688L312.91452 134.79688L312.91452 136.0L311.7114 136.0ZM314.11765 133.73438L315.18015 133.59375Q315.35202 134.48438 315.78952 134.89062Q316.22702 135.28125 316.85202 135.28125Q317.60202 135.28125 318.11765 134.76562Q318.63327 134.25 318.63327 133.48438Q318.63327 132.76562 318.1489 132.29688Q317.68015 131.8125 316.94577 131.8125Q316.6489 131.8125 316.19577 131.9375L316.32077 131.0Q316.43015 131.01562 316.49265 131.01562Q317.16452 131.01562 317.69577 130.67188Q318.24265 130.3125 318.24265 129.57812Q318.24265 129.0 317.85202 128.625Q317.4614 128.23438 316.8364 128.23438Q316.22702 128.23438 315.80515 128.625Q315.3989 129.01562 315.28952 129.78125L314.22702 129.59375Q314.41452 128.54688 315.10202 127.96875Q315.78952 127.375 316.80515 127.375Q317.50827 127.375 318.10202 127.6875Q318.69577 127.984375 319.00827 128.5Q319.32077 129.01562 319.32077 129.60938Q319.32077 130.15625 319.0239 130.625Q318.72702 131.07812 318.1489 131.34375Q318.8989 131.51562 319.32077 132.07812Q319.74265 132.625 319.74265 133.46875Q319.74265 134.59375 318.91452 135.375Q318.10202 136.15625 316.85202 136.15625Q315.72702 136.15625 314.97702 135.48438Q314.22702 134.79688 314.11765 133.73438ZM321.18015 128.53125L321.18015 127.515625L326.74265 127.515625L326.74265 128.34375Q325.93015 129.21875 325.11765 130.67188Q324.32077 132.10938 323.88327 133.64062Q323.55515 134.71875 323.47702 136.0L322.38327 136.0Q322.3989 134.98438 322.7739 133.54688Q323.16452 132.10938 323.86765 130.78125Q324.5864 129.45312 325.3989 128.53125L321.18015 128.53125ZM328.11765 133.75L329.22702 133.65625Q329.35202 134.46875 329.78952 134.875Q330.24265 135.28125 330.88327 135.28125Q331.63327 135.28125 332.16452 134.70312Q332.69577 134.125 332.69577 133.1875Q332.69577 132.28125 332.18015 131.76562Q331.68015 131.23438 330.85202 131.23438Q330.35202 131.23438 329.93015 131.46875Q329.5239 131.70312 329.28952 132.0625L328.30515 131.9375L329.13327 127.53125L333.41452 127.53125L333.41452 128.53125L329.97702 128.53125L329.5239 130.84375Q330.28952 130.29688 331.13327 130.29688Q332.25827 130.29688 333.0239 131.07812Q333.80515 131.85938 333.80515 133.09375Q333.80515 134.25 333.13327 135.10938Q332.30515 136.14062 330.88327 136.14062Q329.7114 136.14062 328.9614 135.48438Q328.22702 134.82812 328.11765 133.75ZM335.11765 131.76562Q335.11765 130.23438 335.43015 129.3125Q335.74265 128.375 336.35202 127.875Q336.97702 127.375 337.91452 127.375Q338.60202 127.375 339.11765 127.65625Q339.6489 127.9375 339.99265 128.46875Q340.3364 128.98438 340.5239 129.73438Q340.7114 130.48438 340.7114 131.76562Q340.7114 133.28125 340.3989 134.20312Q340.10202 135.125 339.47702 135.64062Q338.86765 136.14062 337.91452 136.14062Q336.68015 136.14062 335.9614 135.25Q335.11765 134.1875 335.11765 131.76562ZM336.19577 131.76562Q336.19577 133.875 336.69577 134.57812Q337.19577 135.28125 337.91452 135.28125Q338.6489 135.28125 339.13327 134.57812Q339.63327 133.875 339.63327 131.76562Q339.63327 129.64062 339.13327 128.95312Q338.6489 128.25 337.8989 128.25Q337.18015 128.25 336.74265 128.85938Q336.19577 129.64062 336.19577 131.76562Z" fill-rule="nonzero"/><path fill="#000000" d="M355.02267 136.0L353.9758 136.0L353.9758 129.28125Q353.58517 129.64062 352.96017 130.01562Q352.3508 130.375 351.86642 130.54688L351.86642 129.53125Q352.74142 129.10938 353.39767 128.53125Q354.06955 127.9375 354.3508 127.375L355.02267 127.375L355.02267 136.0ZM358.64767 136.0L358.64767 134.79688L359.8508 134.79688L359.8508 136.0L358.64767 136.0ZM364.42892 136.0L364.42892 133.9375L360.71017 133.9375L360.71017 132.96875L364.63205 127.40625L365.49142 127.40625L365.49142 132.96875L366.64767 132.96875L366.64767 133.9375L365.49142 133.9375L365.49142 136.0L364.42892 136.0ZM364.42892 132.96875L364.42892 129.10938L361.74142 132.96875L364.42892 132.96875ZM368.05392 133.73438L369.11642 133.59375Q369.2883 134.48438 369.7258 134.89062Q370.1633 135.28125 370.7883 135.28125Q371.5383 135.28125 372.05392 134.76562Q372.56955 134.25 372.56955 133.48438Q372.56955 132.76562 372.08517 132.29688Q371.61642 131.8125 370.88205 131.8125Q370.58517 131.8125 370.13205 131.9375L370.25705 131.0Q370.36642 131.01562 370.42892 131.01562Q371.1008 131.01562 371.63205 130.67188Q372.17892 130.3125 372.17892 129.57812Q372.17892 129.0 371.7883 128.625Q371.39767 128.23438 370.77267 128.23438Q370.1633 128.23438 369.74142 128.625Q369.33517 129.01562 369.2258 129.78125L368.1633 129.59375Q368.3508 128.54688 369.0383 127.96875Q369.7258 127.375 370.74142 127.375Q371.44455 127.375 372.0383 127.6875Q372.63205 127.984375 372.94455 128.5Q373.25705 129.01562 373.25705 129.60938Q373.25705 130.15625 372.96017 130.625Q372.6633 131.07812 372.08517 131.34375Q372.83517 131.51562 373.25705 132.07812Q373.67892 132.625 373.67892 133.46875Q373.67892 134.59375 372.8508 135.375Q372.0383 136.15625 370.7883 136.15625Q369.6633 136.15625 368.9133 135.48438Q368.1633 134.79688 368.05392 133.73438ZM375.11642 128.53125L375.11642 127.515625L380.67892 127.515625L380.67892 128.34375Q379.86642 129.21875 379.05392 130.67188Q378.25705 132.10938 377.81955 133.64062Q377.49142 134.71875 377.4133 136.0L376.31955 136.0Q376.33517 134.98438 376.71017 133.54688Q377.1008 132.10938 377.80392 130.78125Q378.52267 129.45312 379.33517 128.53125L375.11642 128.53125ZM382.05392 133.75L383.1633 133.65625Q383.2883 134.46875 383.7258 134.875Q384.17892 135.28125 384.81955 135.28125Q385.56955 135.28125 386.1008 134.70312Q386.63205 134.125 386.63205 133.1875Q386.63205 132.28125 386.11642 131.76562Q385.61642 131.23438 384.7883 131.23438Q384.2883 131.23438 383.86642 131.46875Q383.46017 131.70312 383.2258 132.0625L382.24142 131.9375L383.06955 127.53125L387.3508 127.53125L387.3508 128.53125L383.9133 128.53125L383.46017 130.84375Q384.2258 130.29688 385.06955 130.29688Q386.19455 130.29688 386.96017 131.07812Q387.74142 131.85938 387.74142 133.09375Q387.74142 134.25 387.06955 135.10938Q386.24142 136.14062 384.81955 136.14062Q383.64767 136.14062 382.89767 135.48438Q382.1633 134.82812 382.05392 133.75Z" fill-rule="nonzero"/><path fill="#000000" d="M401.95895 136.0L400.91208 136.0L400.91208 129.28125Q400.52145 129.64062 399.89645 130.01562Q399.28708 130.375 398.8027 130.54688L398.8027 129.53125Q399.6777 129.10938 400.33395 128.53125Q401.00583 127.9375 401.28708 127.375L401.95895 127.375L401.95895 136.0ZM405.58395 136.0L405.58395 134.79688L406.78708 134.79688L406.78708 136.0L405.58395 136.0ZM407.9902 133.75L409.09958 133.65625Q409.22458 134.46875 409.66208 134.875Q410.1152 135.28125 410.75583 135.28125Q411.50583 135.28125 412.03708 134.70312Q412.56833 134.125 412.56833 133.1875Q412.56833 132.28125 412.0527 131.76562Q411.5527 131.23438 410.72458 131.23438Q410.22458 131.23438 409.8027 131.46875Q409.39645 131.70312 409.16208 132.0625L408.1777 131.9375L409.00583 127.53125L413.28708 127.53125L413.28708 128.53125L409.84958 128.53125L409.39645 130.84375Q410.16208 130.29688 411.00583 130.29688Q412.13083 130.29688 412.89645 131.07812Q413.6777 131.85938 413.6777 133.09375Q413.6777 134.25 413.00583 135.10938Q412.1777 136.14062 410.75583 136.14062Q409.58395 136.14062 408.83395 135.48438Q408.09958 134.82812 407.9902 133.75ZM414.9902 131.76562Q414.9902 130.23438 415.3027 129.3125Q415.6152 128.375 416.22458 127.875Q416.84958 127.375 417.78708 127.375Q418.47458 127.375 418.9902 127.65625Q419.52145 127.9375 419.8652 128.46875Q420.20895 128.98438 420.39645 129.73438Q420.58395 130.48438 420.58395 131.76562Q420.58395 133.28125 420.27145 134.20312Q419.97458 135.125 419.34958 135.64062Q418.7402 136.14062 417.78708 136.14062Q416.5527 136.14062 415.83395 135.25Q414.9902 134.1875 414.9902 131.76562ZM416.06833 131.76562Q416.06833 133.875 416.56833 134.57812Q417.06833 135.28125 417.78708 135.28125Q418.52145 135.28125 419.00583 134.57812Q419.50583 133.875 419.50583 131.76562Q419.50583 129.64062 419.00583 128.95312Q418.52145 128.25 417.77145 128.25Q417.0527 128.25 416.6152 128.85938Q416.06833 129.64062 416.06833 131.76562ZM421.9902 131.76562Q421.9902 130.23438 422.3027 129.3125Q422.6152 128.375 423.22458 127.875Q423.84958 127.375 424.78708 127.375Q425.47458 127.375 425.9902 127.65625Q426.52145 127.9375 426.8652 128.46875Q427.20895 128.98438 427.39645 129.73438Q427.58395 130.48438 427.58395 131.76562Q427.58395 133.28125 427.27145 134.20312Q426.97458 135.125 426.34958 135.64062Q425.7402 136.14062 424.78708 136.14062Q423.5527 136.14062 422.83395 135.25Q421.9902 134.1875 421.9902 131.76562ZM423.06833 131.76562Q423.06833 133.875 423.56833 134.57812Q424.06833 135.28125 424.78708 135.28125Q425.52145 135.28125 426.00583 134.57812Q426.50583 133.875 426.50583 131.76562Q426.50583 129.64062 426.00583 128.95312Q425.52145 128.25 424.77145 128.25Q424.0527 128.25 423.6152 128.85938Q423.06833 129.64062 423.06833 131.76562ZM428.9902 131.76562Q428.9902 130.23438 429.3027 129.3125Q429.6152 128.375 430.22458 127.875Q430.84958 127.375 431.78708 127.375Q432.47458 127.375 432.9902 127.65625Q433.52145 127.9375 433.8652 128.46875Q434.20895 128.98438 434.39645 129.73438Q434.58395 130.48438 434.58395 131.76562Q434.58395 133.28125 434.27145 134.20312Q433.97458 135.125 433.34958 135.64062Q432.7402 136.14062 431.78708 136.14062Q430.5527 136.14062 429.83395 135.25Q428.9902 134.1875 428.9902 131.76562ZM430.06833 131.76562Q430.06833 133.875 430.56833 134.57812Q431.06833 135.28125 431.78708 135.28125Q432.52145 135.28125 433.00583 134.57812Q433.50583 133.875 433.50583 131.76562Q433.50583 129.64062 433.00583 128.95312Q432.52145 128.25 431.77145 128.25Q431.0527 128.25 430.6152 128.85938Q430.06833 129.64062 430.06833 131.76562Z" fill-rule="nonzero"/><path fill="#000000" d="M448.89523 136.0L447.84836 136.0L447.84836 129.28125Q447.45773 129.64062 446.83273 130.01562Q446.22336 130.375 445.73898 130.54688L445.73898 129.53125Q446.61398 129.10938 447.27023 128.53125Q447.9421 127.9375 448.22336 127.375L448.89523 127.375L448.89523 136.0ZM452.52023 136.0L452.52023 134.79688L453.72336 134.79688L453.72336 136.0L452.52023 136.0ZM454.92648 133.75L456.03586 133.65625Q456.16086 134.46875 456.59836 134.875Q457.05148 135.28125 457.6921 135.28125Q458.4421 135.28125 458.97336 134.70312Q459.5046 134.125 459.5046 133.1875Q459.5046 132.28125 458.98898 131.76562Q458.48898 131.23438 457.66086 131.23438Q457.16086 131.23438 456.73898 131.46875Q456.33273 131.70312 456.09836 132.0625L455.11398 131.9375L455.9421 127.53125L460.22336 127.53125L460.22336 128.53125L456.78586 128.53125L456.33273 130.84375Q457.09836 130.29688 457.9421 130.29688Q459.0671 130.29688 459.83273 131.07812Q460.61398 131.85938 460.61398 133.09375Q460.61398 134.25 459.9421 135.10938Q459.11398 136.14062 457.6921 136.14062Q456.52023 136.14062 455.77023 135.48438Q455.03586 134.82812 454.92648 133.75ZM467.39523 129.51562L466.34836 129.59375Q466.20773 128.96875 465.95773 128.6875Q465.52023 128.23438 464.89523 128.23438Q464.39523 128.23438 464.0046 128.51562Q463.52023 128.89062 463.22336 129.59375Q462.9421 130.28125 462.92648 131.5625Q463.30148 130.98438 463.84836 130.70312Q464.41086 130.42188 465.02023 130.42188Q466.0671 130.42188 466.80148 131.20312Q467.55148 131.98438 467.55148 133.20312Q467.55148 134.01562 467.1921 134.71875Q466.84836 135.40625 466.23898 135.78125Q465.6296 136.14062 464.86398 136.14062Q463.53586 136.14062 462.70773 135.17188Q461.8796 134.20312 461.8796 131.98438Q461.8796 129.48438 462.80148 128.35938Q463.59836 127.375 464.95773 127.375Q465.97336 127.375 466.61398 127.953125Q467.27023 128.51562 467.39523 129.51562ZM463.09836 133.21875Q463.09836 133.76562 463.3171 134.26562Q463.55148 134.75 463.95773 135.01562Q464.3796 135.28125 464.84836 135.28125Q465.5046 135.28125 465.98898 134.75Q466.47336 134.20312 466.47336 133.28125Q466.47336 132.39062 465.98898 131.875Q465.52023 131.35938 464.80148 131.35938Q464.08273 131.35938 463.58273 131.875Q463.09836 132.39062 463.09836 133.21875ZM474.47336 134.98438L474.47336 136.0L468.78586 136.0Q468.78586 135.625 468.91086 135.26562Q469.1296 134.6875 469.59836 134.125Q470.08273 133.5625 470.98898 132.82812Q472.39523 131.67188 472.8796 131.0Q473.3796 130.32812 473.3796 129.73438Q473.3796 129.10938 472.92648 128.6875Q472.47336 128.25 471.7546 128.25Q470.98898 128.25 470.53586 128.70312Q470.08273 129.15625 470.0671 129.96875L468.98898 129.85938Q469.09836 128.64062 469.8171 128.01562Q470.55148 127.375 471.78586 127.375Q473.02023 127.375 473.73898 128.0625Q474.45773 128.75 474.45773 129.76562Q474.45773 130.28125 474.23898 130.78125Q474.03586 131.26562 473.53586 131.82812Q473.05148 132.375 471.92648 133.32812Q470.97336 134.125 470.6921 134.42188Q470.42648 134.70312 470.2546 134.98438L474.47336 134.98438ZM475.92648 133.75L477.03586 133.65625Q477.16086 134.46875 477.59836 134.875Q478.05148 135.28125 478.6921 135.28125Q479.4421 135.28125 479.97336 134.70312Q480.5046 134.125 480.5046 133.1875Q480.5046 132.28125 479.98898 131.76562Q479.48898 131.23438 478.66086 131.23438Q478.16086 131.23438 477.73898 131.46875Q477.33273 131.70312 477.09836 132.0625L476.11398 131.9375L476.9421 127.53125L481.22336 127.53125L481.22336 128.53125L477.78586 128.53125L477.33273 130.84375Q478.09836 130.29688 478.9421 130.29688Q480.0671 130.29688 480.83273 131.07812Q481.61398 131.85938 481.61398 133.09375Q481.61398 134.25 480.9421 135.10938Q480.11398 136.14062 478.6921 136.14062Q477.52023 136.14062 476.77023 135.48438Q476.03586 134.82812 475.92648 133.75Z" fill-rule="nonzero"/><path fill="#000000" d="M495.83148 136.0L494.7846 136.0L494.7846 129.28125Q494.39398 129.64062 493.76898 130.01562Q493.1596 130.375 492.67523 130.54688L492.67523 129.53125Q493.55023 129.10938 494.20648 128.53125Q494.87836 127.9375 495.1596 127.375L495.83148 127.375L495.83148 136.0ZM499.45648 136.0L499.45648 134.79688L500.6596 134.79688L500.6596 136.0L499.45648 136.0ZM507.33148 129.51562L506.2846 129.59375Q506.14398 128.96875 505.89398 128.6875Q505.45648 128.23438 504.83148 128.23438Q504.33148 128.23438 503.94086 128.51562Q503.45648 128.89062 503.1596 129.59375Q502.87836 130.28125 502.86273 131.5625Q503.23773 130.98438 503.7846 130.70312Q504.3471 130.42188 504.95648 130.42188Q506.00336 130.42188 506.73773 131.20312Q507.48773 131.98438 507.48773 133.20312Q507.48773 134.01562 507.12836 134.71875Q506.7846 135.40625 506.17523 135.78125Q505.56586 136.14062 504.80023 136.14062Q503.4721 136.14062 502.64398 135.17188Q501.81586 134.20312 501.81586 131.98438Q501.81586 129.48438 502.73773 128.35938Q503.5346 127.375 504.89398 127.375Q505.9096 127.375 506.55023 127.953125Q507.20648 128.51562 507.33148 129.51562ZM503.0346 133.21875Q503.0346 133.76562 503.25336 134.26562Q503.48773 134.75 503.89398 135.01562Q504.31586 135.28125 504.7846 135.28125Q505.44086 135.28125 505.92523 134.75Q506.4096 134.20312 506.4096 133.28125Q506.4096 132.39062 505.92523 131.875Q505.45648 131.35938 504.73773 131.35938Q504.01898 131.35938 503.51898 131.875Q503.0346 132.39062 503.0346 133.21875ZM514.4096 134.98438L514.4096 136.0L508.7221 136.0Q508.7221 135.625 508.8471 135.26562Q509.06586 134.6875 509.5346 134.125Q510.01898 133.5625 510.92523 132.82812Q512.3315 131.67188 512.81586 131.0Q513.31586 130.32812 513.31586 129.73438Q513.31586 129.10938 512.86273 128.6875Q512.4096 128.25 511.69086 128.25Q510.92523 128.25 510.4721 128.70312Q510.01898 129.15625 510.00336 129.96875L508.92523 129.85938Q509.0346 128.64062 509.75336 128.01562Q510.48773 127.375 511.7221 127.375Q512.9565 127.375 513.67523 128.0625Q514.394 128.75 514.394 129.76562Q514.394 130.28125 514.17523 130.78125Q513.9721 131.26562 513.4721 131.82812Q512.98773 132.375 511.86273 133.32812Q510.9096 134.125 510.62836 134.42188Q510.36273 134.70312 510.19086 134.98438L514.4096 134.98438ZM515.86273 133.75L516.9721 133.65625Q517.0971 134.46875 517.5346 134.875Q517.98773 135.28125 518.62836 135.28125Q519.37836 135.28125 519.9096 134.70312Q520.44086 134.125 520.44086 133.1875Q520.44086 132.28125 519.92523 131.76562Q519.42523 131.23438 518.5971 131.23438Q518.0971 131.23438 517.67523 131.46875Q517.269 131.70312 517.0346 132.0625L516.05023 131.9375L516.87836 127.53125L521.1596 127.53125L521.1596 128.53125L517.7221 128.53125L517.269 130.84375Q518.0346 130.29688 518.87836 130.29688Q520.00336 130.29688 520.769 131.07812Q521.55023 131.85938 521.55023 133.09375Q521.55023 134.25 520.87836 135.10938Q520.05023 136.14062 518.62836 136.14062Q517.4565 136.14062 516.7065 135.48438Q515.9721 134.82812 515.86273 133.75ZM522.86273 131.76562Q522.86273 130.23438 523.17523 129.3125Q523.48773 128.375 524.0971 127.875Q524.7221 127.375 525.6596 127.375Q526.3471 127.375 526.86273 127.65625Q527.394 127.9375 527.73773 128.46875Q528.0815 128.98438 528.269 129.73438Q528.4565 130.48438 528.4565 131.76562Q528.4565 133.28125 528.144 134.20312Q527.8471 135.125 527.2221 135.64062Q526.61273 136.14062 525.6596 136.14062Q524.42523 136.14062 523.7065 135.25Q522.86273 134.1875 522.86273 131.76562ZM523.94086 131.76562Q523.94086 133.875 524.44086 134.57812Q524.94086 135.28125 525.6596 135.28125Q526.394 135.28125 526.87836 134.57812Q527.37836 133.875 527.37836 131.76562Q527.37836 129.64062 526.87836 128.95312Q526.394 128.25 525.644 128.25Q524.92523 128.25 524.48773 128.85938Q523.94086 129.64062 523.94086 131.76562Z" fill-rule="nonzero"/><path fill="#000000" d="M542.76776 136.0L541.7209 136.0L541.7209 129.28125Q541.33026 129.64062 540.70526 130.01562Q540.0959 130.375 539.6115 130.54688L539.6115 129.53125Q540.4865 129.10938 541.14276 128.53125Q541.81464 127.9375 542.0959 127.375L542.76776 127.375L542.76776 136.0ZM546.39276 136.0L546.39276 134.79688L547.5959 134.79688L547.5959 136.0L546.39276 136.0ZM554.26776 129.51562L553.2209 129.59375Q553.08026 128.96875 552.83026 128.6875Q552.39276 128.23438 551.76776 128.23438Q551.26776 128.23438 550.87714 128.51562Q550.39276 128.89062 550.0959 129.59375Q549.81464 130.28125 549.799 131.5625Q550.174 130.98438 550.7209 130.70312Q551.2834 130.42188 551.89276 130.42188Q552.93964 130.42188 553.674 131.20312Q554.424 131.98438 554.424 133.20312Q554.424 134.01562 554.06464 134.71875Q553.7209 135.40625 553.1115 135.78125Q552.50214 136.14062 551.7365 136.14062Q550.4084 136.14062 549.58026 135.17188Q548.75214 134.20312 548.75214 131.98438Q548.75214 129.48438 549.674 128.35938Q550.4709 127.375 551.83026 127.375Q552.8459 127.375 553.4865 127.953125Q554.14276 128.51562 554.26776 129.51562ZM549.9709 133.21875Q549.9709 133.76562 550.18964 134.26562Q550.424 134.75 550.83026 135.01562Q551.25214 135.28125 551.7209 135.28125Q552.37714 135.28125 552.8615 134.75Q553.3459 134.20312 553.3459 133.28125Q553.3459 132.39062 552.8615 131.875Q552.39276 131.35938 551.674 131.35938Q550.95526 131.35938 550.45526 131.875Q549.9709 132.39062 549.9709 133.21875ZM557.424 131.34375Q556.76776 131.09375 556.43964 130.65625Q556.12714 130.20312 556.12714 129.59375Q556.12714 128.65625 556.799 128.01562Q557.4865 127.375 558.5959 127.375Q559.7209 127.375 560.4084 128.03125Q561.0959 128.6875 561.0959 129.625Q561.0959 130.21875 560.7834 130.65625Q560.4709 131.09375 559.83026 131.34375Q560.62714 131.59375 561.0334 132.17188Q561.43964 132.75 561.43964 133.54688Q561.43964 134.64062 560.6584 135.39062Q559.89276 136.14062 558.6115 136.14062Q557.3459 136.14062 556.56464 135.39062Q555.7834 134.64062 555.7834 133.51562Q555.7834 132.67188 556.20526 132.10938Q556.64276 131.54688 557.424 131.34375ZM557.20526 129.54688Q557.20526 130.15625 557.5959 130.54688Q558.00214 130.9375 558.62714 130.9375Q559.2365 130.9375 559.62714 130.5625Q560.01776 130.17188 560.01776 129.60938Q560.01776 129.03125 559.6115 128.64062Q559.20526 128.23438 558.6115 128.23438Q558.00214 128.23438 557.5959 128.625Q557.20526 129.01562 557.20526 129.54688ZM556.87714 133.51562Q556.87714 133.96875 557.08026 134.39062Q557.299 134.8125 557.7209 135.04688Q558.14276 135.28125 558.62714 135.28125Q559.37714 135.28125 559.8615 134.79688Q560.3615 134.3125 560.3615 133.5625Q560.3615 132.79688 559.8615 132.29688Q559.3615 131.79688 558.5959 131.79688Q557.8459 131.79688 557.3615 132.29688Q556.87714 132.78125 556.87714 133.51562ZM562.8615 128.53125L562.8615 127.515625L568.424 127.515625L568.424 128.34375Q567.6115 129.21875 566.799 130.67188Q566.00214 132.10938 565.56464 133.64062Q565.2365 134.71875 565.1584 136.0L564.06464 136.0Q564.08026 134.98438 564.45526 133.54688Q564.8459 132.10938 565.549 130.78125Q566.26776 129.45312 567.08026 128.53125L562.8615 128.53125ZM569.799 133.75L570.9084 133.65625Q571.0334 134.46875 571.4709 134.875Q571.924 135.28125 572.56464 135.28125Q573.31464 135.28125 573.8459 134.70312Q574.37714 134.125 574.37714 133.1875Q574.37714 132.28125 573.8615 131.76562Q573.3615 131.23438 572.5334 131.23438Q572.0334 131.23438 571.6115 131.46875Q571.20526 131.70312 570.9709 132.0625L569.9865 131.9375L570.81464 127.53125L575.0959 127.53125L575.0959 128.53125L571.6584 128.53125L571.20526 130.84375Q571.9709 130.29688 572.81464 130.29688Q573.93964 130.29688 574.70526 131.07812Q575.4865 131.85938 575.4865 133.09375Q575.4865 134.25 574.81464 135.10938Q573.9865 136.14062 572.56464 136.14062Q571.39276 136.14062 570.64276 135.48438Q569.9084 134.82812 569.799 133.75Z" fill-rule="nonzero"/><path fill="#000000" d="M589.70404 136.0L588.65717 136.0L588.65717 129.28125Q588.26654 129.64062 587.64154 130.01562Q587.03217 130.375 586.5478 130.54688L586.5478 129.53125Q587.4228 129.10938 588.07904 128.53125Q588.7509 127.9375 589.03217 127.375L589.70404 127.375L589.70404 136.0ZM593.32904 136.0L593.32904 134.79688L594.53217 134.79688L594.53217 136.0L593.32904 136.0ZM595.7978 128.53125L595.7978 127.515625L601.3603 127.515625L601.3603 128.34375Q600.5478 129.21875 599.7353 130.67188Q598.9384 132.10938 598.5009 133.64062Q598.1728 134.71875 598.09467 136.0L597.0009 136.0Q597.01654 134.98438 597.39154 133.54688Q597.78217 132.10938 598.4853 130.78125Q599.20404 129.45312 600.01654 128.53125L595.7978 128.53125ZM602.7353 133.75L603.84467 133.65625Q603.96967 134.46875 604.40717 134.875Q604.8603 135.28125 605.5009 135.28125Q606.2509 135.28125 606.78217 134.70312Q607.3134 134.125 607.3134 133.1875Q607.3134 132.28125 606.7978 131.76562Q606.2978 131.23438 605.46967 131.23438Q604.96967 131.23438 604.5478 131.46875Q604.14154 131.70312 603.90717 132.0625L602.9228 131.9375L603.7509 127.53125L608.03217 127.53125L608.03217 128.53125L604.59467 128.53125L604.14154 130.84375Q604.90717 130.29688 605.7509 130.29688Q606.8759 130.29688 607.64154 131.07812Q608.4228 131.85938 608.4228 133.09375Q608.4228 134.25 607.7509 135.10938Q606.9228 136.14062 605.5009 136.14062Q604.32904 136.14062 603.57904 135.48438Q602.84467 134.82812 602.7353 133.75ZM609.7353 131.76562Q609.7353 130.23438 610.0478 129.3125Q610.3603 128.375 610.96967 127.875Q611.59467 127.375 612.53217 127.375Q613.21967 127.375 613.7353 127.65625Q614.26654 127.9375 614.6103 128.46875Q614.95404 128.98438 615.14154 129.73438Q615.32904 130.48438 615.32904 131.76562Q615.32904 133.28125 615.01654 134.20312Q614.71967 135.125 614.09467 135.64062Q613.4853 136.14062 612.53217 136.14062Q611.2978 136.14062 610.57904 135.25Q609.7353 134.1875 609.7353 131.76562ZM610.8134 131.76562Q610.8134 133.875 611.3134 134.57812Q611.8134 135.28125 612.53217 135.28125Q613.26654 135.28125 613.7509 134.57812Q614.2509 133.875 614.2509 131.76562Q614.2509 129.64062 613.7509 128.95312Q613.26654 128.25 612.51654 128.25Q611.7978 128.25 611.3603 128.85938Q610.8134 129.64062 610.8134 131.76562ZM616.7353 131.76562Q616.7353 130.23438 617.0478 129.3125Q617.3603 128.375 617.96967 127.875Q618.59467 127.375 619.53217 127.375Q620.21967 127.375 620.7353 127.65625Q621.26654 127.9375 621.6103 128.46875Q621.95404 128.98438 622.14154 129.73438Q622.32904 130.48438 622.32904 131.76562Q622.32904 133.28125 622.01654 134.20312Q621.71967 135.125 621.09467 135.64062Q620.4853 136.14062 619.53217 136.14062Q618.2978 136.14062 617.57904 135.25Q616.7353 134.1875 616.7353 131.76562ZM617.8134 131.76562Q617.8134 133.875 618.3134 134.57812Q618.8134 135.28125 619.53217 135.28125Q620.26654 135.28125 620.7509 134.57812Q621.2509 133.875 621.2509 131.76562Q621.2509 129.64062 620.7509 128.95312Q620.26654 128.25 619.51654 128.25Q618.7978 128.25 618.3603 128.85938Q617.8134 129.64062 617.8134 131.76562Z" fill-rule="nonzero"/><path fill="#000000" d="M636.6403 136.0L635.59344 136.0L635.59344 129.28125Q635.2028 129.64062 634.5778 130.01562Q633.96844 130.375 633.4841 130.54688L633.4841 129.53125Q634.3591 129.10938 635.0153 128.53125Q635.6872 127.9375 635.96844 127.375L636.6403 127.375L636.6403 136.0ZM640.2653 136.0L640.2653 134.79688L641.46844 134.79688L641.46844 136.0L640.2653 136.0ZM644.2966 131.34375Q643.6403 131.09375 643.3122 130.65625Q642.9997 130.20312 642.9997 129.59375Q642.9997 128.65625 643.6716 128.01562Q644.3591 127.375 645.46844 127.375Q646.59344 127.375 647.28094 128.03125Q647.96844 128.6875 647.96844 129.625Q647.96844 130.21875 647.65594 130.65625Q647.34344 131.09375 646.7028 131.34375Q647.4997 131.59375 647.90594 132.17188Q648.3122 132.75 648.3122 133.54688Q648.3122 134.64062 647.53094 135.39062Q646.7653 136.14062 645.4841 136.14062Q644.21844 136.14062 643.4372 135.39062Q642.65594 134.64062 642.65594 133.51562Q642.65594 132.67188 643.0778 132.10938Q643.5153 131.54688 644.2966 131.34375ZM644.0778 129.54688Q644.0778 130.15625 644.46844 130.54688Q644.8747 130.9375 645.4997 130.9375Q646.1091 130.9375 646.4997 130.5625Q646.8903 130.17188 646.8903 129.60938Q646.8903 129.03125 646.4841 128.64062Q646.0778 128.23438 645.4841 128.23438Q644.8747 128.23438 644.46844 128.625Q644.0778 129.01562 644.0778 129.54688ZM643.7497 133.51562Q643.7497 133.96875 643.9528 134.39062Q644.1716 134.8125 644.59344 135.04688Q645.0153 135.28125 645.4997 135.28125Q646.2497 135.28125 646.7341 134.79688Q647.2341 134.3125 647.2341 133.5625Q647.2341 132.79688 646.7341 132.29688Q646.2341 131.79688 645.46844 131.79688Q644.71844 131.79688 644.2341 132.29688Q643.7497 132.78125 643.7497 133.51562ZM653.6403 136.0L652.59344 136.0L652.59344 129.28125Q652.2028 129.64062 651.5778 130.01562Q650.96844 130.375 650.4841 130.54688L650.4841 129.53125Q651.3591 129.10938 652.0153 128.53125Q652.6872 127.9375 652.96844 127.375L653.6403 127.375L653.6403 136.0ZM662.21844 134.98438L662.21844 136.0L656.53094 136.0Q656.53094 135.625 656.65594 135.26562Q656.8747 134.6875 657.34344 134.125Q657.8278 133.5625 658.7341 132.82812Q660.1403 131.67188 660.6247 131.0Q661.1247 130.32812 661.1247 129.73438Q661.1247 129.10938 660.6716 128.6875Q660.21844 128.25 659.4997 128.25Q658.7341 128.25 658.28094 128.70312Q657.8278 129.15625 657.8122 129.96875L656.7341 129.85938Q656.84344 128.64062 657.5622 128.01562Q658.2966 127.375 659.53094 127.375Q660.7653 127.375 661.4841 128.0625Q662.2028 128.75 662.2028 129.76562Q662.2028 130.28125 661.9841 130.78125Q661.78094 131.26562 661.28094 131.82812Q660.7966 132.375 659.6716 133.32812Q658.71844 134.125 658.4372 134.42188Q658.1716 134.70312 657.9997 134.98438L662.21844 134.98438ZM663.6716 133.75L664.78094 133.65625Q664.90594 134.46875 665.34344 134.875Q665.7966 135.28125 666.4372 135.28125Q667.1872 135.28125 667.71844 134.70312Q668.2497 134.125 668.2497 133.1875Q668.2497 132.28125 667.7341 131.76562Q667.2341 131.23438 666.40594 131.23438Q665.90594 131.23438 665.4841 131.46875Q665.0778 131.70312 664.84344 132.0625L663.8591 131.9375L664.6872 127.53125L668.96844 127.53125L668.96844 128.53125L665.53094 128.53125L665.0778 130.84375Q665.84344 130.29688 666.6872 130.29688Q667.8122 130.29688 668.5778 131.07812Q669.3591 131.85938 669.3591 133.09375Q669.3591 134.25 668.6872 135.10938Q667.8591 136.14062 666.4372 136.14062Q665.2653 136.14062 664.5153 135.48438Q663.78094 134.82812 663.6716 133.75Z" fill-rule="nonzero"/><path fill="#000000" d="M683.5766 136.0L682.5297 136.0L682.5297 129.28125Q682.1391 129.64062 681.5141 130.01562Q680.9047 130.375 680.42035 130.54688L680.42035 129.53125Q681.29535 129.10938 681.9516 128.53125Q682.6235 127.9375 682.9047 127.375L683.5766 127.375L683.5766 136.0ZM687.2016 136.0L687.2016 134.79688L688.4047 134.79688L688.4047 136.0L687.2016 136.0ZM691.23285 131.34375Q690.5766 131.09375 690.2485 130.65625Q689.936 130.20312 689.936 129.59375Q689.936 128.65625 690.60785 128.01562Q691.29535 127.375 692.4047 127.375Q693.5297 127.375 694.2172 128.03125Q694.9047 128.6875 694.9047 129.625Q694.9047 130.21875 694.5922 130.65625Q694.2797 131.09375 693.6391 131.34375Q694.436 131.59375 694.8422 132.17188Q695.2485 132.75 695.2485 133.54688Q695.2485 134.64062 694.4672 135.39062Q693.7016 136.14062 692.42035 136.14062Q691.1547 136.14062 690.3735 135.39062Q689.5922 134.64062 689.5922 133.51562Q689.5922 132.67188 690.0141 132.10938Q690.4516 131.54688 691.23285 131.34375ZM691.0141 129.54688Q691.0141 130.15625 691.4047 130.54688Q691.811 130.9375 692.436 130.9375Q693.04535 130.9375 693.436 130.5625Q693.8266 130.17188 693.8266 129.60938Q693.8266 129.03125 693.42035 128.64062Q693.0141 128.23438 692.42035 128.23438Q691.811 128.23438 691.4047 128.625Q691.0141 129.01562 691.0141 129.54688ZM690.686 133.51562Q690.686 133.96875 690.8891 134.39062Q691.10785 134.8125 691.5297 135.04688Q691.9516 135.28125 692.436 135.28125Q693.186 135.28125 693.67035 134.79688Q694.17035 134.3125 694.17035 133.5625Q694.17035 132.79688 693.67035 132.29688Q693.17035 131.79688 692.4047 131.79688Q691.6547 131.79688 691.17035 132.29688Q690.686 132.78125 690.686 133.51562ZM696.67035 128.53125L696.67035 127.515625L702.23285 127.515625L702.23285 128.34375Q701.42035 129.21875 700.60785 130.67188Q699.811 132.10938 699.3735 133.64062Q699.04535 134.71875 698.9672 136.0L697.8735 136.0Q697.8891 134.98438 698.2641 133.54688Q698.6547 132.10938 699.35785 130.78125Q700.0766 129.45312 700.8891 128.53125L696.67035 128.53125ZM703.60785 133.75L704.7172 133.65625Q704.8422 134.46875 705.2797 134.875Q705.73285 135.28125 706.3735 135.28125Q707.1235 135.28125 707.6547 134.70312Q708.186 134.125 708.186 133.1875Q708.186 132.28125 707.67035 131.76562Q707.17035 131.23438 706.3422 131.23438Q705.8422 131.23438 705.42035 131.46875Q705.0141 131.70312 704.7797 132.0625L703.79535 131.9375L704.6235 127.53125L708.9047 127.53125L708.9047 128.53125L705.4672 128.53125L705.0141 130.84375Q705.7797 130.29688 706.6235 130.29688Q707.7485 130.29688 708.5141 131.07812Q709.29535 131.85938 709.29535 133.09375Q709.29535 134.25 708.6235 135.10938Q707.79535 136.14062 706.3735 136.14062Q705.2016 136.14062 704.4516 135.48438Q703.7172 134.82812 703.60785 133.75ZM710.60785 131.76562Q710.60785 130.23438 710.92035 129.3125Q711.23285 128.375 711.8422 127.875Q712.4672 127.375 713.4047 127.375Q714.0922 127.375 714.60785 127.65625Q715.1391 127.9375 715.48285 128.46875Q715.8266 128.98438 716.0141 129.73438Q716.2016 130.48438 716.2016 131.76562Q716.2016 133.28125 715.8891 134.20312Q715.5922 135.125 714.9672 135.64062Q714.35785 136.14062 713.4047 136.14062Q712.17035 136.14062 711.4516 135.25Q710.60785 134.1875 710.60785 131.76562ZM711.686 131.76562Q711.686 133.875 712.186 134.57812Q712.686 135.28125 713.4047 135.28125Q714.1391 135.28125 714.6235 134.57812Q715.1235 133.875 715.1235 131.76562Q715.1235 129.64062 714.6235 128.95312Q714.1391 128.25 713.3891 128.25Q712.67035 128.25 712.23285 128.85938Q711.686 129.64062 711.686 131.76562Z" fill-rule="nonzero"/><path fill="#000000" d="M730.5129 136.0L729.466 136.0L729.466 129.28125Q729.0754 129.64062 728.4504 130.01562Q727.841 130.375 727.3566 130.54688L727.3566 129.53125Q728.2316 129.10938 728.8879 128.53125Q729.55975 127.9375 729.841 127.375L730.5129 127.375L730.5129 136.0ZM734.1379 136.0L734.1379 134.79688L735.341 134.79688L735.341 136.0L734.1379 136.0ZM736.7004 134.01562L737.716 133.92188Q737.841 134.64062 738.2004 134.96875Q738.5754 135.28125 739.1379 135.28125Q739.62225 135.28125 739.9816 135.0625Q740.3566 134.82812 740.591 134.46875Q740.8254 134.09375 740.9816 133.46875Q741.1379 132.82812 741.1379 132.17188Q741.1379 132.09375 741.1379 131.95312Q740.8254 132.45312 740.2785 132.78125Q739.7316 133.09375 739.091 133.09375Q738.0129 133.09375 737.2785 132.32812Q736.5441 131.54688 736.5441 130.28125Q736.5441 128.96875 737.30975 128.17188Q738.091 127.375 739.24725 127.375Q740.0754 127.375 740.7629 127.828125Q741.466 128.28125 741.8254 129.125Q742.18475 129.95312 742.18475 131.53125Q742.18475 133.17188 741.8254 134.15625Q741.4816 135.125 740.7629 135.64062Q740.05975 136.14062 739.12225 136.14062Q738.1066 136.14062 737.466 135.59375Q736.8254 135.03125 736.7004 134.01562ZM741.0129 130.21875Q741.0129 129.3125 740.5285 128.78125Q740.05975 128.25 739.37225 128.25Q738.6691 128.25 738.1379 128.82812Q737.62225 129.39062 737.62225 130.3125Q737.62225 131.125 738.12225 131.64062Q738.62225 132.15625 739.341 132.15625Q740.0754 132.15625 740.5441 131.64062Q741.0129 131.125 741.0129 130.21875ZM743.5441 133.73438L744.6066 133.59375Q744.7785 134.48438 745.216 134.89062Q745.6535 135.28125 746.2785 135.28125Q747.0285 135.28125 747.5441 134.76562Q748.05975 134.25 748.05975 133.48438Q748.05975 132.76562 747.5754 132.29688Q747.1066 131.8125 746.37225 131.8125Q746.0754 131.8125 745.62225 131.9375L745.74725 131.0Q745.8566 131.01562 745.9191 131.01562Q746.591 131.01562 747.12225 130.67188Q747.6691 130.3125 747.6691 129.57812Q747.6691 129.0 747.2785 128.625Q746.8879 128.23438 746.2629 128.23438Q745.6535 128.23438 745.2316 128.625Q744.8254 129.01562 744.716 129.78125L743.6535 129.59375Q743.841 128.54688 744.5285 127.96875Q745.216 127.375 746.2316 127.375Q746.93475 127.375 747.5285 127.6875Q748.12225 127.984375 748.43475 128.5Q748.74725 129.01562 748.74725 129.60938Q748.74725 130.15625 748.4504 130.625Q748.1535 131.07812 747.5754 131.34375Q748.3254 131.51562 748.74725 132.07812Q749.1691 132.625 749.1691 133.46875Q749.1691 134.59375 748.341 135.375Q747.5285 136.15625 746.2785 136.15625Q745.1535 136.15625 744.4035 135.48438Q743.6535 134.79688 743.5441 133.73438ZM750.6066 128.53125L750.6066 127.515625L756.1691 127.515625L756.1691 128.34375Q755.3566 129.21875 754.5441 130.67188Q753.74725 132.10938 753.30975 133.64062Q752.9816 134.71875 752.9035 136.0L751.80975 136.0Q751.8254 134.98438 752.2004 133.54688Q752.591 132.10938 753.2941 130.78125Q754.0129 129.45312 754.8254 128.53125L750.6066 128.53125ZM757.5441 133.75L758.6535 133.65625Q758.7785 134.46875 759.216 134.875Q759.6691 135.28125 760.30975 135.28125Q761.05975 135.28125 761.591 134.70312Q762.12225 134.125 762.12225 133.1875Q762.12225 132.28125 761.6066 131.76562Q761.1066 131.23438 760.2785 131.23438Q759.7785 131.23438 759.3566 131.46875Q758.9504 131.70312 758.716 132.0625L757.7316 131.9375L758.55975 127.53125L762.841 127.53125L762.841 128.53125L759.4035 128.53125L758.9504 130.84375Q759.716 130.29688 760.55975 130.29688Q761.68475 130.29688 762.4504 131.07812Q763.2316 131.85938 763.2316 133.09375Q763.2316 134.25 762.55975 135.10938Q761.7316 136.14062 760.30975 136.14062Q759.1379 136.14062 758.3879 135.48438Q757.6535 134.82812 757.5441 133.75Z" fill-rule="nonzero"/><path fill="#000000" d="M779.0273 134.98438L779.0273 136.0L773.3398 136.0Q773.3398 135.625 773.4648 135.26562Q773.68353 134.6875 774.1523 134.125Q774.63666 133.5625 775.5429 132.82812Q776.94916 131.67188 777.43353 131.0Q777.93353 130.32812 777.93353 129.73438Q777.93353 129.10938 777.4804 128.6875Q777.0273 128.25 776.30853 128.25Q775.5429 128.25 775.0898 128.70312Q774.63666 129.15625 774.62103 129.96875L773.5429 129.85938Q773.6523 128.64062 774.37103 128.01562Q775.1054 127.375 776.3398 127.375Q777.57416 127.375 778.2929 128.0625Q779.01166 128.75 779.01166 129.76562Q779.01166 130.28125 778.7929 130.78125Q778.5898 131.26562 778.0898 131.82812Q777.6054 132.375 776.4804 133.32812Q775.5273 134.125 775.24603 134.42188Q774.9804 134.70312 774.80853 134.98438L779.0273 134.98438ZM781.07416 136.0L781.07416 134.79688L782.2773 134.79688L782.2773 136.0L781.07416 136.0ZM783.4804 131.76562Q783.4804 130.23438 783.7929 129.3125Q784.1054 128.375 784.7148 127.875Q785.3398 127.375 786.2773 127.375Q786.9648 127.375 787.4804 127.65625Q788.01166 127.9375 788.3554 128.46875Q788.69916 128.98438 788.88666 129.73438Q789.07416 130.48438 789.07416 131.76562Q789.07416 133.28125 788.76166 134.20312Q788.4648 135.125 787.8398 135.64062Q787.2304 136.14062 786.2773 136.14062Q785.0429 136.14062 784.32416 135.25Q783.4804 134.1875 783.4804 131.76562ZM784.55853 131.76562Q784.55853 133.875 785.05853 134.57812Q785.55853 135.28125 786.2773 135.28125Q787.01166 135.28125 787.49603 134.57812Q787.99603 133.875 787.99603 131.76562Q787.99603 129.64062 787.49603 128.95312Q787.01166 128.25 786.26166 128.25Q785.5429 128.25 785.1054 128.85938Q784.55853 129.64062 784.55853 131.76562ZM790.4804 131.76562Q790.4804 130.23438 790.7929 129.3125Q791.1054 128.375 791.7148 127.875Q792.3398 127.375 793.2773 127.375Q793.9648 127.375 794.4804 127.65625Q795.01166 127.9375 795.3554 128.46875Q795.69916 128.98438 795.88666 129.73438Q796.07416 130.48438 796.07416 131.76562Q796.07416 133.28125 795.76166 134.20312Q795.4648 135.125 794.8398 135.64062Q794.2304 136.14062 793.2773 136.14062Q792.0429 136.14062 791.32416 135.25Q790.4804 134.1875 790.4804 131.76562ZM791.55853 131.76562Q791.55853 133.875 792.05853 134.57812Q792.55853 135.28125 793.2773 135.28125Q794.01166 135.28125 794.49603 134.57812Q794.99603 133.875 794.99603 131.76562Q794.99603 129.64062 794.49603 128.95312Q794.01166 128.25 793.26166 128.25Q792.5429 128.25 792.1054 128.85938Q791.55853 129.64062 791.55853 131.76562ZM797.4804 131.76562Q797.4804 130.23438 797.7929 129.3125Q798.1054 128.375 798.7148 127.875Q799.3398 127.375 800.2773 127.375Q800.9648 127.375 801.4804 127.65625Q802.01166 127.9375 802.3554 128.46875Q802.69916 128.98438 802.88666 129.73438Q803.07416 130.48438 803.07416 131.76562Q803.07416 133.28125 802.76166 134.20312Q802.4648 135.125 801.8398 135.64062Q801.2304 136.14062 800.2773 136.14062Q799.0429 136.14062 798.32416 135.25Q797.4804 134.1875 797.4804 131.76562ZM798.55853 131.76562Q798.55853 133.875 799.05853 134.57812Q799.55853 135.28125 800.2773 135.28125Q801.01166 135.28125 801.49603 134.57812Q801.99603 133.875 801.99603 131.76562Q801.99603 129.64062 801.49603 128.95312Q801.01166 128.25 800.26166 128.25Q799.5429 128.25 799.1054 128.85938Q798.55853 129.64062 798.55853 131.76562ZM804.4804 131.76562Q804.4804 130.23438 804.7929 129.3125Q805.1054 128.375 805.7148 127.875Q806.3398 127.375 807.2773 127.375Q807.9648 127.375 808.4804 127.65625Q809.01166 127.9375 809.3554 128.46875Q809.69916 128.98438 809.88666 129.73438Q810.07416 130.48438 810.07416 131.76562Q810.07416 133.28125 809.76166 134.20312Q809.4648 135.125 808.8398 135.64062Q808.2304 136.14062 807.2773 136.14062Q806.0429 136.14062 805.32416 135.25Q804.4804 134.1875 804.4804 131.76562ZM805.55853 131.76562Q805.55853 133.875 806.05853 134.57812Q806.55853 135.28125 807.2773 135.28125Q808.01166 135.28125 808.49603 134.57812Q808.99603 133.875 808.99603 131.76562Q808.99603 129.64062 808.49603 128.95312Q808.01166 128.25 807.26166 128.25Q806.5429 128.25 806.1054 128.85938Q805.55853 129.64062 805.55853 131.76562Z" fill-rule="nonzero"/></svg>